<?xml version="1.0" encoding="UTF-8"?>
<svg width="120px" height="120px" viewBox="0 0 120 120" version="1.1" xmlns="http://www.w3.org/2000/svg" xmlns:xlink="http://www.w3.org/1999/xlink">
    <title>Group 39</title>
    <g id="InkRockit_Photoframe" stroke="none" stroke-width="1" fill="none" fill-rule="evenodd">
        <g id="InkRockit_Photoframe-2560" transform="translate(-1625.000000, -1448.000000)">
            <g id="Group-61" transform="translate(0.000000, 7.000000)">
                <g id="Group-40" transform="translate(0.000000, 1064.000000)">
                    <g id="Group-38" transform="translate(780.000000, 100.000000)">
                        <g id="Group-24" transform="translate(845.000000, 277.000000)">
                            <g id="Group-39" transform="translate(60.000000, 60.000000) scale(-1, 1) translate(-60.000000, -60.000000) ">
                                <rect id="Rectangle" fill="#D8D8D8" opacity="0" x="0" y="0" width="120" height="120"></rect>
                                <g id="Group-22" transform="translate(6.000000, 7.200000)" stroke="#000000" stroke-width="1.44">
                                    <g id="Group-19">
                                        <path d="M11.52,0 L41.76,0 L41.76,0 L41.76,21.6 L0,21.6 L0,11.52 C-7.79159521e-16,5.15767968 5.15767968,2.94509612e-15 11.52,0 Z" id="Rectangle" fill="#D8D8D8"></path>
                                        <path d="" id="Combined-Shape" fill="#ABABAB"></path>
                                        <path d="M21.5686523,21.6 L0,21.6 L0,11.52 C0,5.15767968 5.15767968,0 11.52,0 L41.76,0 L41.76,0" id="Path" fill="#000000"></path>
                                        <path d="M21.6,10.8 C21.6,4.8353247 16.7646753,-1.09569308e-15 10.8,0 C10.5579591,1.88627927e-16 10.3177779,0.00796213213 10.079704,0.0236387637 L10.08,0 L80.64,0 C87.0023203,-1.16873928e-15 92.16,5.15767968 92.16,11.52 L92.16,108 L33.12,108 C26.7576797,108 21.6,102.84232 21.6,96.48 Z" id="Combined-Shape" fill="#A165BC"></path>
                                        <path d="M108,84 L108,96.48 C108,102.84232 102.84232,108 96.48,108 L36,108 L36.0000613,107.910865 C41.6827203,107.202217 46.08,102.354628 46.08,96.48 L46.079,84 L108,84 Z" id="Combined-Shape" fill="#000000"></path>
                                    </g>
                                </g>
                            </g>
                        </g>
                    </g>
                </g>
            </g>
        </g>
    </g>
</svg>