<svg xmlns="http://www.w3.org/2000/svg" width="136" height="136" viewBox="0 0 136 136"><g><g><g><g><g><path fill="none" stroke="#000" stroke-miterlimit="20" stroke-width="1.44" d="M68.2 43.4a9.6 9.6 0 1 0 0-19.2 9.6 9.6 0 0 0 0 19.2z"/></g><g><path d="M68.2 37.4a3.6 3.6 0 1 0 0-7.2 3.6 3.6 0 0 0 0 7.2z"/></g><g><path d="M74.548 96.2v6.039h19.626V96.2h12.078v6.039h7.548V113H20.2v-10.761h7.548V96.2h12.078v6.039h19.626V96.2z"/><path fill="none" stroke="#000" stroke-miterlimit="20" stroke-width="1.44" d="M74.548 96.2v6.039h19.626v0V96.2v0h12.078v6.039h7.548V113H20.2v0-10.761 0h7.548v0V96.2v0h12.078v6.039h19.626v0V96.2v0z"/></g><g><path fill="none" stroke="#000" stroke-miterlimit="20" stroke-width="1.44" d="M20.2 78.8h94.2"/></g><g><path fill="none" stroke="#000" stroke-miterlimit="20" stroke-width="1.44" d="M69.662 15.821c10.465 1.127 16.034 7.626 16.708 19.497.226 3.983.226 14.893 15.305 15.365C120.311 51.268 121 67.656 121 67.656v5.743H15.4v0-5.738 0s.689-16.38 19.325-16.963C49.804 50.225 49.804 39.32 50.03 35.34c.683-12.023 6.392-18.532 17.13-19.528.158-.015.739-.013 1.21-.008.535-.005 1.095-.004 1.292.017z"/></g><g><path fill="none" stroke="#000" stroke-miterlimit="20" stroke-width="1.44" d="M68.2 33.8v76.894"/></g><g><path fill="none" stroke="#000" stroke-miterlimit="20" stroke-width="1.2" d="M14.2 113v0h105.6v10.267H14.2v0z"/></g></g></g></g></g></svg>