<svg xmlns="http://www.w3.org/2000/svg" width="33" height="48" viewBox="0 0 33 48"><g><g><g><path fill="#858585" d="M26.172 3.28A16.25 16.25 0 0 0 16.36 0C7.324 0 0 7.354 0 16.424c0 3.65 1.188 7.022 3.194 9.748 11.002-3.215 19.69-11.88 22.978-22.892"/></g><g><path fill="#858585" d="M19.301 40.755c1.109 0 1.978.896 1.978 2.04 0 1.151-.823 2.019-1.918 2.019a2.082 2.082 0 0 1-1.44-.546 1.943 1.943 0 0 1-.6-1.438c0-1.144.89-2.075 1.98-2.075zm-13.95 0c1.108 0 1.977.896 1.977 2.04 0 1.151-.824 2.019-1.919 2.019a2.075 2.075 0 0 1-1.437-.546 1.942 1.942 0 0 1-.601-1.438c0-1.144.888-2.075 1.98-2.075zm7.004-.013c.874 0 1.721.652 1.974 1.518l.007.023-.024.005a3.79 3.79 0 0 1-1.065.15c-.276 0-.575-.023-.865-.045h-.01c-.268-.02-.523-.04-.766-.04-.174 0-.333.01-.486.03-.455.056-.814.196-.814.196l.004-.036c.088-.898.854-1.664 1.783-1.787.085-.01.173-.014.262-.014zm16.771-.68v5.458c0 .077.066.14.142.14h.784c.08 0 .144-.063.144-.14V40.06a.142.142 0 0 0-.144-.139h-.784a.142.142 0 0 0-.142.14zm-9.812-.341a3.026 3.026 0 0 0-2.958 2.258c-.061.23-.126.815-.126 1.397v4.28c0 .077.065.142.143.142h.778c.08 0 .145-.065.145-.143l-.001-2.697.042.04a3.118 3.118 0 0 0 2.08.81c.805 0 1.553-.304 2.106-.854.564-.56.872-1.326.872-2.16 0-1.724-1.353-3.073-3.081-3.073zm-6.953 0c-.133 0-.27.008-.405.025-1.704.214-2.862 1.724-2.635 3.436.204 1.55 1.48 2.612 3.033 2.612.13 0 .267-.009.405-.025.829-.103 1.554-.442 2.1-1.1a.18.18 0 0 0 .04-.13.156.156 0 0 0-.069-.103c-.091-.063-.417-.218-.594-.302a16.428 16.428 0 0 1-.12-.056.274.274 0 0 0-.126-.039c-.043 0-.083.021-.124.069a1.974 1.974 0 0 1-1.512.683c-.827 0-1.664-.542-1.905-1.285l-.006-.02.018-.008c.042-.021.43-.196 1.004-.196.071 0 .143.003.213.009.166.012.331.032.506.054.322.042.656.084 1.045.084.24 0 .475-.015.717-.048.947-.18 1.321-.44 1.326-.441.134-.085.127-.155.12-.281v-.013a8.724 8.724 0 0 0-.028-.248 3.12 3.12 0 0 0-.12-.534c-.423-1.303-1.555-2.143-2.883-2.143zm-6.998 0a3.027 3.027 0 0 0-2.958 2.258c-.063.23-.125.815-.125 1.397v4.28c0 .077.065.142.142.142h.78c.08 0 .144-.065.144-.143l-.001-2.697.04.04a3.122 3.122 0 0 0 2.081.81c.805 0 1.553-.304 2.108-.854.562-.56.873-1.326.873-2.16 0-1.724-1.355-3.073-3.084-3.073zm20.109 0c-1.243 0-2.179.782-2.179 1.817 0 .821.69 1.404 1.938 1.644l.782.147c.514.093.802.36.792.734-.01.365-.466.744-1.216.744-.611 0-1.152-.236-1.603-.637l-.006-.008c-.032-.028-.071-.062-.123-.062a.194.194 0 0 0-.113.048c-.048.037-.57.442-.626.499-.025.027-.038.055-.034.085a.174.174 0 0 0 .06.118c.676.606 1.415.953 2.374.953h.03c1.652-.011 2.392-.898 2.392-1.772 0-1.208-1.164-1.538-1.517-1.61-.115-.024-.235-.046-.355-.07-.288-.054-.587-.11-.86-.184-.19-.05-.811-.253-.811-.71 0-.5.567-.77 1.1-.77.448 0 .82.074 1.299.44a.246.246 0 0 0 .151.062c.05 0 .097-.016.143-.051.133-.096.373-.296.534-.452a.157.157 0 0 0 .053-.122.212.212 0 0 0-.08-.141c-.64-.497-1.253-.7-2.118-.702h-.007zm4.194-1.742a.707.707 0 0 0-.711.697c0 .383.32.695.711.695a.705.705 0 0 0 .712-.695.705.705 0 0 0-.712-.697zm.644-30.008h.001V7.97zm.524 3.381c0 3.798-1.91 7.14-4.808 9.232-5.045 3.637-12.396 3.642-22.546 6.774 3.064 3.586 7.666 5.869 12.815 5.869 9.227 0 16.71-7.325 16.71-16.36 0-3.28-.993-6.332-2.694-8.895.336 1.07.523 2.204.523 3.38z"/></g></g></g></svg>