<svg xmlns="http://www.w3.org/2000/svg" width="1422" height="728" viewBox="0 0 1422 728"><g><g><g transform="rotate(-180 826.5 452)"><path fill="#00adf3" d="M826.48 482.61c-16.292 0-29.48-13.208-29.48-29.5s13.188-29.5 29.48-29.5S856 436.818 856 453.11s-13.228 29.5-29.52 29.5z"/></g><g transform="rotate(-180 826.5 377)"><path fill="#ff008a" d="M826.48 407.61c-16.292 0-29.48-13.208-29.48-29.5s13.188-29.5 29.48-29.5S856 361.818 856 378.11s-13.228 29.5-29.52 29.5z"/></g><g transform="rotate(-180 826.5 301)"><path fill="#f8cb02" d="M826.48 331.61c-16.292 0-29.48-13.208-29.48-29.5s13.188-29.5 29.48-29.5S856 285.818 856 302.11s-13.228 29.5-29.52 29.5z"/></g><g transform="rotate(-180 826.5 226)"><path fill="#1a1919" d="M826.48 256.61c-16.292 0-29.48-13.208-29.48-29.5s13.188-29.5 29.48-29.5S856 210.818 856 227.11s-13.228 29.5-29.52 29.5z"/></g><g><path fill="#f8cb02" d="M889 706.277l-17.948 19.955-8.946-25.304-24.218 11.567 1.419-26.802-26.802 1.42 11.567-24.22-25.304-8.945L818.723 636l-19.955-17.948 25.304-8.946-11.567-24.218 26.802 1.419-1.42-26.802 24.22 11.567 8.945-25.304L889 565.723l17.948-19.955 8.946 25.304 24.218-11.567-1.419 26.802 26.802-1.42-11.567 24.22 25.304 8.945L959.277 636l19.955 17.948-25.304 8.946 11.567 24.218-26.802-1.419 1.42 26.802-24.22-11.567-8.945 25.304z"/></g><g><path fill="none" stroke="#fff" stroke-miterlimit="20" stroke-width="20" d="M1023.605 211.922A597.66 597.66 0 0 1 1057 211c91.127 0 165 20.147 165 45s-73.873 45-165 45-165-20.147-165-45c0-6 4.238-11.636 11.937-16.837"/></g><g><path fill="none" stroke="#000" stroke-miterlimit="20" d="M1023.605 211.922A597.66 597.66 0 0 1 1057 211c91.127 0 165 20.147 165 45s-73.873 45-165 45-165-20.147-165-45c0-6 4.238-11.636 11.937-16.837"/></g><g transform="rotate(-90 1100 461.5)"><path fill="#9ec83d" d="M1100 488c146.908 0 266-11.864 266-26.5S1246.908 435 1100 435c-146.908 0-266 11.864-266 26.5S953.092 488 1100 488z"/></g><g transform="rotate(-90 1132 461.5)"><path fill="#9ec83d" d="M1132 488c146.908 0 266-11.864 266-26.5S1278.908 435 1132 435c-146.908 0-266 11.864-266 26.5S985.092 488 1132 488z"/></g><g transform="rotate(-90 1164 461.5)"><path fill="#9ec83d" d="M1164 488c146.908 0 266-11.864 266-26.5S1310.908 435 1164 435c-146.908 0-266 11.864-266 26.5s119.092 26.5 266 26.5z"/></g><g transform="rotate(-90 1196 461.5)"><path fill="#9ec83d" d="M1196 488c146.908 0 266-11.864 266-26.5S1342.908 435 1196 435c-146.908 0-266 11.864-266 26.5s119.092 26.5 266 26.5z"/></g><g transform="rotate(-45 1021 502)"><path fill="none" stroke="#000" stroke-miterlimit="20" stroke-width="1.4" d="M981.633 305.103a1 1 0 0 1 1-1h78a1 1 0 0 1 1 1v393a1 1 0 0 1-1 1h-78a1 1 0 0 1-1-1z"/></g><g><g><path d="M10 10z"/></g><g><path fill="none" stroke="#fff" stroke-miterlimit="20" d="M10 10v0"/></g><g><path fill="none" stroke="#fff" stroke-miterlimit="20" d="M10 10v0"/></g><g><path fill="none" stroke="#fff" stroke-miterlimit="20" d="M10 10v0"/></g><g><path fill="none" stroke="#fff" stroke-miterlimit="20" d="M10 10v0"/></g><g><path fill="none" stroke="#fff" stroke-miterlimit="20" d="M10 10v0"/></g><g><path fill="none" stroke="#fff" stroke-miterlimit="20" d="M10 10v0"/></g><g><path fill="none" stroke="#fff" stroke-miterlimit="20" d="M10 10v0"/></g><g><path fill="none" stroke="#fff" stroke-miterlimit="20" d="M10 10v0"/></g><g><path fill="none" stroke="#fff" stroke-miterlimit="20" d="M10 10v0"/></g></g><g transform="rotate(-45 1141 619)"><path d="M1140.654 627.874c5.246 0 9.5-4.24 9.5-9.5a9.5 9.5 0 0 0-19 0c0 5.26 4.253 9.5 9.5 9.5z"/></g><g transform="rotate(-45 889.5 392.5)"><path fill="none" stroke="#000" stroke-miterlimit="20" stroke-width="1.4" d="M865.612 392.51h48"/></g><g transform="rotate(-45 909 420.5)"><path fill="none" stroke="#000" stroke-miterlimit="20" stroke-width="1.4" d="M890.723 420.531h36"/></g><g transform="rotate(-45 937.5 440.5)"><path fill="none" stroke="#000" stroke-miterlimit="20" stroke-width="1.4" d="M913.1 440.117h48"/></g><g transform="rotate(-45 957 468.5)"><path fill="none" stroke="#000" stroke-miterlimit="20" stroke-width="1.4" d="M938.997 468.191h36"/></g><g transform="rotate(-45 984.5 487.5)"><path fill="none" stroke="#000" stroke-miterlimit="20" stroke-width="1.4" d="M961.03 487.584h48"/></g><g transform="rotate(-45 1028.5 540)"><path fill="none" stroke="#000" stroke-miterlimit="20" stroke-width="1.4" d="M1010.597 539.885h36"/></g><g transform="rotate(-45 1056.5 559.5)"><path fill="none" stroke="#000" stroke-miterlimit="20" stroke-width="1.4" d="M1033.1 559.824h48"/></g><g transform="rotate(-45 1076 587)"><path fill="none" stroke="#000" stroke-miterlimit="20" stroke-width="1.4" d="M1057.806 587.638h36"/></g><g><path fill="none" stroke="#fff" stroke-miterlimit="20" stroke-width="20" d="M1057 211c-91.127 0-165 20.147-165 45s73.873 45 165 45c69.38 0 128.758-11.678 153.148-28.22 4.26-2.89 9.722-9.41 11.852-13.78"/></g><g><path fill="none" stroke="#000" stroke-miterlimit="20" d="M1057 211c-91.127 0-165 20.147-165 45s73.873 45 165 45c69.38 0 128.758-11.678 153.148-28.22 4.26-2.89 9.722-9.41 11.852-13.78"/></g></g></g></svg>