<svg xmlns="http://www.w3.org/2000/svg" width="275" height="353" viewBox="0 0 275 353"><g><g transform="rotate(-180 19.5 170.5)"><path fill="#00adf3" d="M19.5 190C8.73 190 0 181.27 0 170.5S8.73 151 19.5 151 39 159.73 39 170.5 30.27 190 19.5 190z"/></g><g transform="rotate(-180 19.5 120.5)"><path fill="#ff008a" d="M19.5 140C8.73 140 0 131.27 0 120.5S8.73 101 19.5 101 39 109.73 39 120.5 30.27 140 19.5 140z"/></g><g transform="rotate(-180 19.5 70.5)"><path fill="#f8cb02" d="M19.5 90C8.73 90 0 81.27 0 70.5S8.73 51 19.5 51 39 59.73 39 70.5 30.27 90 19.5 90z"/></g><g transform="rotate(-180 19.5 20.5)"><path fill="#1a1919" d="M19.5 40C8.73 40 0 31.27 0 20.5S8.73 1 19.5 1 39 9.73 39 20.5 30.27 40 19.5 40z"/></g><g><path fill="#f8cb02" d="M61 338.479l-11.9 13.34-5.932-16.916-16.058 7.732.941-17.916-17.77.949L18 309.478l-16.828-5.98L14.403 291.5l-13.23-11.998L18 273.522l-7.72-16.19 17.771.949-.94-17.916 16.057 7.732 5.931-16.915L61 244.522l11.9-13.34 5.932 16.915 16.058-7.732-.941 17.916 17.77-.949-7.719 16.19 16.828 5.98-13.231 11.998 13.23 11.998-16.827 5.98 7.72 16.19-17.771-.949.94 17.916-16.057-7.732-5.931 16.915z"/></g><g transform="rotate(-90 200.5 176.5)"><path fill="#9ec83d" d="M200.5 194c97.5 0 176.5-7.835 176.5-17.5S298 159 200.5 159 24 166.835 24 176.5 103 194 200.5 194z"/></g><g transform="rotate(-90 222.5 176.5)"><path fill="#9ec83d" d="M222.5 194c97.5 0 176.5-7.835 176.5-17.5S320 159 222.5 159 46 166.835 46 176.5 125 194 222.5 194z"/></g><g transform="rotate(-90 244.5 176.5)"><path fill="#9ec83d" d="M244.5 194c97.5 0 176.5-7.835 176.5-17.5S342 159 244.5 159 68 166.835 68 176.5 147 194 244.5 194z"/></g><g transform="rotate(-45 149 203)"><path fill="none" stroke="#000" stroke-miterlimit="20" stroke-width="1.4" d="M122.6 72.816a1 1 0 0 1 1-1l51.164-.018a1 1 0 0 1 1 1l-.093 260.5a1 1 0 0 1-1 1l-51.164.018a1 1 0 0 1-1-1z"/></g><g transform="rotate(-45 228 281)"><path d="M228.47 287.227a6.319 6.319 0 0 0 6.316-6.316 6.308 6.308 0 0 0-6.31-6.31 6.319 6.319 0 0 0-6.316 6.315 6.308 6.308 0 0 0 6.31 6.31z"/></g><g transform="rotate(-45 61.5 130.5)"><path fill="none" stroke="#000" stroke-miterlimit="20" stroke-width="1.4" d="M45.288 130.484l31.9-.011"/></g><g transform="rotate(-45 74.5 149)"><path fill="none" stroke="#000" stroke-miterlimit="20" stroke-width="1.4" d="M62.473 148.85l23.924-.008"/></g><g transform="rotate(-45 93 162)"><path fill="none" stroke="#000" stroke-miterlimit="20" stroke-width="1.4" d="M77.091 161.923l31.9-.011"/></g><g transform="rotate(-45 106 181)"><path fill="none" stroke="#000" stroke-miterlimit="20" stroke-width="1.4" d="M94.417 180.769l23.924-.009"/></g><g transform="rotate(-45 124.5 193.5)"><path fill="none" stroke="#000" stroke-miterlimit="20" stroke-width="1.4" d="M109.073 193.603l31.898-.012"/></g><g transform="rotate(-45 154 228)"><path fill="none" stroke="#000" stroke-miterlimit="20" stroke-width="1.4" d="M141.66 228.708l23.923-.009"/></g><g transform="rotate(-45 172.5 241.5)"><path fill="none" stroke="#000" stroke-miterlimit="20" stroke-width="1.4" d="M156.638 241.621l31.899-.011"/></g><g transform="rotate(-45 185 260)"><path fill="none" stroke="#000" stroke-miterlimit="20" stroke-width="1.4" d="M173.335 259.674l23.924-.009"/></g></g></svg>