<?xml version="1.0" encoding="UTF-8"?>
<svg width="229px" height="123px" viewBox="0 0 229 123" version="1.1" xmlns="http://www.w3.org/2000/svg" xmlns:xlink="http://www.w3.org/1999/xlink">
    <title>Group 12</title>
    <g id="InkRockit_Folder" stroke="none" stroke-width="1" fill="none" fill-rule="evenodd">
        <g id="InkRockit_Photoframe_tablet" transform="translate(-483.000000, -1741.000000)">
            <g id="Group-40" transform="translate(0.000000, 1436.000000)">
                <g id="Group-38" transform="translate(40.000000, 63.000000)">
                    <g id="Group-12" transform="translate(444.000000, 243.000000)">
                        <g id="Group-14">
                            <g id="Group-13">
                                <path d="M56.870661,-2.48689958e-13 L222.166798,-2.48689958e-13 C224.839143,-2.50069038e-13 227.005507,2.16636411 227.005507,4.83870968 L227.005507,115.746656 C227.005507,118.419002 224.839143,120.585366 222.166798,120.585366 L56.8773683,120.585366 C55.510909,120.585366 54.2081545,120.007597 53.2908825,118.994768 L4.26325641e-14,60.1522778 L4.26325641e-14,60.1522778 L53.2917135,1.58229351 C54.2087021,0.5744819 55.5081074,-2.59097802e-13 56.870661,-2.48689958e-13 Z" id="Rectangle" stroke="#000000" stroke-width="1.93548387" fill="#A165BC" fill-rule="nonzero" stroke-linejoin="round" transform="translate(113.502754, 60.292683) scale(1, -1) translate(-113.502754, -60.292683) "></path>
                                <path d="M82.1551849,38.9997482 C83.5177655,38.9997482 84.7293784,38.7442644 85.7900236,38.2332966 C86.8506688,37.7223289 87.7216365,37.0565224 88.4029268,36.2358773 C89.0842172,35.4152321 89.579701,34.5249095 89.8893784,33.5649095 L89.8893784,33.5649095 L89.8893784,29.6397482 L81.5513139,29.6397482 L81.5513139,32.4965224 L86.5680881,32.4965224 C86.2738946,33.4565224 85.7706688,34.1958773 85.0584107,34.7145869 C84.3461526,35.2332966 83.5177655,35.4926515 82.5732494,35.4926515 C81.1022817,35.4926515 79.9680881,35.0745869 79.1706688,34.2384579 C78.3732494,33.4023289 77.9745397,32.2023289 77.9745397,30.6384579 C77.9745397,29.1984579 78.3538946,28.0565224 79.1126042,27.2126515 C79.8713139,26.3687805 80.8777655,25.946845 82.1319591,25.946845 C82.9371204,25.946845 83.6261526,26.1210386 84.1990559,26.4694256 C84.7719591,26.8178127 85.1977655,27.2861998 85.4764752,27.8745869 L85.4764752,27.8745869 L89.6803462,27.8745869 C89.3551849,26.1558773 88.5267978,24.7932966 87.1951849,23.786845 C85.863572,22.7803934 84.1680881,22.2771676 82.1087333,22.2771676 C80.467443,22.2771676 79.0313139,22.6294256 77.8003462,23.3339418 C76.5693784,24.0384579 75.6171204,25.0255547 74.943572,26.2952321 C74.2700236,27.5649095 73.9332494,29.0126515 73.9332494,30.6384579 C73.9332494,32.2642644 74.2700236,33.7120063 74.943572,34.9816837 C75.6171204,36.2513611 76.5732494,37.2384579 77.8119591,37.942974 C79.0506688,38.6474902 80.4984107,38.9997482 82.1551849,38.9997482 Z M106.69325,38.8603934 L106.69325,35.6784579 L100.445508,35.6784579 L100.445508,32.0320063 L105.996475,32.0320063 L105.996475,29.0358773 L100.445508,29.0358773 L100.445508,25.5984579 L106.69325,25.5984579 L106.69325,22.4397482 L96.4738947,22.4397482 L96.4738947,38.8603934 L106.69325,38.8603934 Z M120.640346,38.8603934 L120.640346,25.5984579 L125.099701,25.5984579 L125.099701,22.4397482 L112.232605,22.4397482 L112.232605,25.5984579 L116.645508,25.5984579 L116.645508,38.8603934 L120.640346,38.8603934 Z M147.466153,38.8603934 L147.466153,25.5984579 L151.925508,25.5984579 L151.925508,22.4397482 L139.058411,22.4397482 L139.058411,25.5984579 L143.471314,25.5984579 L143.471314,38.8603934 L147.466153,38.8603934 Z M161.924218,38.8603934 L161.924218,32.0087805 L168.148734,32.0087805 L168.148734,38.8603934 L172.143573,38.8603934 L172.143573,22.4397482 L168.148734,22.4397482 L168.148734,28.8036192 L161.924218,28.8036192 L161.924218,22.4397482 L157.952605,22.4397482 L157.952605,38.8603934 L161.924218,38.8603934 Z M189.458412,38.8603934 L189.458412,35.6784579 L183.21067,35.6784579 L183.21067,32.0320063 L188.761637,32.0320063 L188.761637,29.0358773 L183.21067,29.0358773 L183.21067,25.5984579 L189.458412,25.5984579 L189.458412,22.4397482 L179.239057,22.4397482 L179.239057,38.8603934 L189.458412,38.8603934 Z M82.619701,67.8926515 L85.267443,56.906845 L87.8919591,67.8926515 L92.8158301,67.8926515 L96.7409913,51.4720063 L92.4442172,51.4720063 L90.307443,63.3636192 L87.427443,51.4720063 L83.0842172,51.4720063 L80.2042172,63.3636192 L78.0906688,51.4720063 L73.7706688,51.4720063 L77.6958301,67.8926515 L82.619701,67.8926515 Z M174.384863,67.8926515 L177.032605,56.906845 L179.657121,67.8926515 L184.580992,67.8926515 L188.506154,51.4720063 L184.20938,51.4720063 L182.072605,63.3636192 L179.192605,51.4720063 L174.84938,51.4720063 L171.96938,63.3636192 L169.855831,51.4720063 L165.535831,51.4720063 L169.460992,67.8926515 L174.384863,67.8926515 Z M78.3926042,96.9249095 L78.3926042,90.2823289 L83.5951849,90.2823289 L83.5951849,87.262974 L78.3926042,87.262974 L78.3926042,83.662974 L85.1280881,83.662974 L85.1280881,80.5042644 L74.4209913,80.5042644 L74.4209913,96.9249095 L78.3926042,96.9249095 Z M94.522927,96.9249095 L95.5448625,93.9287805 L101.699701,93.9287805 L102.721637,96.9249095 L106.948733,96.9249095 L100.93325,80.6203934 L96.3577657,80.6203934 L90.3422818,96.9249095 L94.522927,96.9249095 Z M100.677766,90.9094256 L96.5667979,90.9094256 L98.6338947,84.870716 L100.677766,90.9094256 Z M120.338411,97.0642644 C122.428734,97.0642644 124.159056,96.510716 125.529379,95.4036192 C126.899701,94.2965224 127.786153,92.8139418 128.188734,90.9558773 L128.188734,90.9558773 L123.984863,90.9558773 C123.675185,91.6991031 123.199056,92.2874902 122.556475,92.7210386 C121.913895,93.1545869 121.151314,93.3713611 120.268734,93.3713611 C119.107443,93.3713611 118.170669,92.9494256 117.458411,92.1055547 C116.746153,91.2616837 116.390024,90.1274902 116.390024,88.702974 C116.390024,87.2784579 116.746153,86.1403934 117.458411,85.2887805 C118.170669,84.4371676 119.107443,84.0113611 120.268734,84.0113611 C121.151314,84.0113611 121.913895,84.2281353 122.556475,84.6616837 C123.199056,85.0952321 123.675185,85.6913611 123.984863,86.4500708 L123.984863,86.4500708 L128.188734,86.4500708 C127.786153,84.5765224 126.899701,83.0900708 125.529379,81.990716 C124.159056,80.8913611 122.428734,80.3416837 120.338411,80.3416837 C118.743572,80.3416837 117.342282,80.6939418 116.13454,81.3984579 C114.926798,82.102974 113.993895,83.0900708 113.33583,84.3597482 C112.677766,85.6294256 112.348734,87.0771676 112.348734,88.702974 C112.348734,90.3287805 112.677766,91.7765224 113.33583,93.0461998 C113.993895,94.3158773 114.926798,95.302974 116.13454,96.0074902 C117.342282,96.7120063 118.743572,97.0642644 120.338411,97.0642644 Z M142.112605,96.9249095 L142.112605,83.662974 L146.57196,83.662974 L146.57196,80.5042644 L133.704863,80.5042644 L133.704863,83.662974 L138.117766,83.662974 L138.117766,96.9249095 L142.112605,96.9249095 Z M160.402927,97.0874902 C161.935831,97.0874902 163.33325,96.7274902 164.595185,96.0074902 C165.857121,95.2874902 166.855831,94.2849095 167.591314,92.9997482 C168.326798,91.7145869 168.69454,90.266845 168.69454,88.6565224 C168.69454,87.0461998 168.330669,85.6023289 167.602927,84.3249095 C166.875185,83.0474902 165.880347,82.0487805 164.618411,81.3287805 C163.356476,80.6087805 161.951314,80.2487805 160.402927,80.2487805 C158.870024,80.2487805 157.472605,80.6087805 156.210669,81.3287805 C154.948734,82.0487805 153.950024,83.0474902 153.21454,84.3249095 C152.479056,85.6023289 152.111314,87.0461998 152.111314,88.6565224 C152.111314,90.266845 152.479056,91.7145869 153.21454,92.9997482 C153.950024,94.2849095 154.948734,95.2874902 156.210669,96.0074902 C157.472605,96.7274902 158.870024,97.0874902 160.402927,97.0874902 Z M160.402927,93.3713611 C159.102282,93.3713611 158.068734,92.9455547 157.302282,92.0939418 C156.535831,91.2423289 156.152605,90.0965224 156.152605,88.6565224 C156.152605,87.2010386 156.535831,86.0513611 157.302282,85.2074902 C158.068734,84.3636192 159.102282,83.9416837 160.402927,83.9416837 C161.703573,83.9416837 162.737121,84.3674902 163.503573,85.2191031 C164.270024,86.070716 164.65325,87.2165224 164.65325,88.6565224 C164.65325,90.0965224 164.266153,91.2423289 163.49196,92.0939418 C162.717766,92.9455547 161.688089,93.3713611 160.402927,93.3713611 Z M179.250669,96.9249095 L179.250669,90.7236192 L180.156476,90.7236192 L183.710024,96.9249095 L188.099702,96.9249095 L184.197766,90.4681353 C185.45196,90.1584579 186.408089,89.5855547 187.066153,88.7494256 C187.724218,87.9132966 188.05325,86.8991031 188.05325,85.706845 C188.05325,84.7003934 187.828734,83.8061998 187.379702,83.0242644 C186.930669,82.2423289 186.257121,81.626845 185.359057,81.1778127 C184.460992,80.7287805 183.361637,80.5042644 182.060992,80.5042644 L182.060992,80.5042644 L175.279057,80.5042644 L175.279057,96.9249095 L179.250669,96.9249095 Z M181.712605,88.0061998 L179.250669,88.0061998 L179.250669,83.8487805 L181.712605,83.8487805 C182.486798,83.8487805 183.063573,84.0345869 183.442928,84.4061998 C183.822282,84.7778127 184.01196,85.2887805 184.01196,85.9391031 C184.01196,86.6203934 183.826153,87.1352321 183.45454,87.4836192 C183.082928,87.8320063 182.502282,88.0061998 181.712605,88.0061998 L181.712605,88.0061998 Z" id="GETTHEWWFACTOR" fill="#FFFFFF" fill-rule="nonzero"></path>
                                <line x1="207.986405" y1="24.2596381" x2="208.050669" y2="79.9047994" id="Path-12" stroke="#FFFFFF" stroke-width="3.67741935" stroke-linecap="round"></line>
                                <line x1="208.050669" y1="95.3886703" x2="208.050669" y2="87.6467349" id="Path-12" stroke="#FFFFFF" stroke-width="3.67741935" stroke-linecap="round"></line>
                            </g>
                            <rect id="Rectangle" stroke="#FFFFFF" stroke-width="3.67741935" x="102.082927" y="53.2918961" width="57.0967742" height="13.5483871" rx="6.77419355"></rect>
                        </g>
                        <g id="Group-28" transform="translate(102.050669, 52.614477)"></g>
                    </g>
                </g>
            </g>
        </g>
    </g>
</svg>