<svg xmlns="http://www.w3.org/2000/svg" width="126" height="109" viewBox="0 0 126 109"><g><g><g><g><g><path fill="none" stroke="#000" stroke-miterlimit="20" stroke-width="1.5" d="M77.864 83.75v0H51.75v0V15v0h58.75v68.75h-10.09v0"/></g><g><path fill="none" stroke="#000" stroke-miterlimit="20" stroke-width="1.5" d="M45.481 83.75v0h6.269v0V37.5v0H25.5v0l-10 18.731V83.75h7.395v0"/></g><g><path fill="none" stroke="#000" stroke-miterlimit="20" stroke-width="1.5" d="M89.25 93.75c6.213 0 11.25-5.037 11.25-11.25s-5.037-11.25-11.25-11.25S78 76.287 78 82.5s5.037 11.25 11.25 11.25z"/></g><g><path fill="none" stroke="#000" stroke-miterlimit="20" stroke-width="1.5" d="M34.25 93.75c6.213 0 11.25-5.037 11.25-11.25s-5.037-11.25-11.25-11.25S23 76.287 23 82.5s5.037 11.25 11.25 11.25z"/></g><g><path fill="none" stroke="#000" stroke-miterlimit="20" stroke-width="1.5" d="M15.5 56.255h36.25"/></g><g><path fill="none" stroke="#000" stroke-miterlimit="20" stroke-width="1.5" d="M70.5 48.168v0l9.015 8.688v0L95.112 40v0"/></g></g></g><g><path d="M34.206 86.941a4.266 4.266 0 1 0 0-8.531 4.266 4.266 0 0 0 0 8.531z"/></g><g><path d="M89.206 86.941a4.266 4.266 0 1 0 0-8.531 4.266 4.266 0 0 0 0 8.531z"/></g></g></g></svg>