<svg xmlns="http://www.w3.org/2000/svg" width="111" height="105" viewBox="0 0 111 105"><defs><clipPath id="wkuya"><path fill="#fff" d="M6 11.25h9.756v9.756H6z"/></clipPath><clipPath id="wkuyb"><path fill="#fff" d="M96.24 11.25h9.756v9.756H96.24z"/></clipPath></defs><g><g><g><g><g><g><path d="M86.49 48.18a4 4 0 0 1 4-4h1.756a4 4 0 0 1 4 4v1.756a4 4 0 0 1-4 4H90.49a4 4 0 0 1-4-4z"/></g><g><path d="M15.76 48.18a4 4 0 0 1 4-4h1.756a4 4 0 0 1 4 4v1.756a4 4 0 0 1-4 4H19.76a4 4 0 0 1-4-4z"/></g><g><path fill="none" stroke="#000" stroke-miterlimit="20" stroke-width="1.5" d="M51.12 57.93a4 4 0 0 1 4-4h1.756a4 4 0 0 1 4 4v1.756a4 4 0 0 1-4 4H55.12a4 4 0 0 1-4-4z"/></g><g><path fill="none" stroke="#000" stroke-miterlimit="20" stroke-width="1.5" d="M46.421 75.881c-.215-3.724-1.189-5.603-2.652-8.536s-4.173-5.796-7.279-8.73L56.234 29.54v0l19.28 29.075c-2.78 2.284-5.015 5.123-6.705 8.517-1.657 3.329-2.524 5.438-2.6 8.767"/></g><g><path fill="none" stroke="#000" stroke-miterlimit="20" stroke-width="1.5" d="M56 29.74v24.197"/></g><g><path fill="none" stroke="#000" stroke-miterlimit="20" stroke-width="1.5" d="M91.362 44.179c0-15.491-15.834-28.049-35.366-28.049S20.63 28.688 20.63 44.179"/></g><g><path fill="none" stroke="#000" stroke-miterlimit="20" stroke-width="3" d="M6 11.25v0h9.756v9.756H6v0z" clip-path="url(&quot;#wkuya&quot;)"/></g><g><path fill="none" stroke="#000" stroke-miterlimit="20" stroke-width="3" d="M96.24 11.25v0h9.756v9.756H96.24v0z" clip-path="url(&quot;#wkuyb&quot;)"/></g><g><path d="M51.12 15.25a4 4 0 0 1 4-4h1.756a4 4 0 0 1 4 4v1.756a4 4 0 0 1-4 4H55.12a4 4 0 0 1-4-4z"/></g><g><path fill="none" stroke="#000" stroke-miterlimit="20" stroke-width="1.5" d="M15.76 16.13h41.463"/></g><g><path fill="none" stroke="#000" stroke-miterlimit="20" stroke-width="1.37" d="M60.88 16.13h35.366"/></g></g><g><path fill="none" stroke="#000" stroke-miterlimit="20" stroke-width="1.5" d="M41.37 75.88v0h29.268v13.415H41.37v0z"/></g></g></g></g></g></svg>