<?xml version="1.0" encoding="UTF-8"?>
<svg width="435px" height="535px" viewBox="0 0 435 535" version="1.1" xmlns="http://www.w3.org/2000/svg" xmlns:xlink="http://www.w3.org/1999/xlink">
    <title>Group 9</title>
    <g id="InkRockit_Design" stroke="none" stroke-width="1" fill="none" fill-rule="evenodd">
        <g id="InkRockit_Design-2560" transform="translate(-1348.000000, -184.000000)">
            <g id="Group-9" transform="translate(1348.000000, 184.867188)">
                <circle id="Oval" fill="#00ADF3" transform="translate(29.515625, 257.500000) scale(-1, 1) rotate(-180.000000) translate(-29.515625, -257.500000) " cx="29.515625" cy="257.5" r="29.5"></circle>
                <circle id="Oval" fill="#FF008A" transform="translate(29.515625, 182.500000) scale(-1, 1) rotate(-180.000000) translate(-29.515625, -182.500000) " cx="29.515625" cy="182.5" r="29.5"></circle>
                <circle id="Oval" fill="#F8CB02" transform="translate(29.515625, 106.500000) scale(-1, 1) rotate(-180.000000) translate(-29.515625, -106.500000) " cx="29.515625" cy="106.5" r="29.5"></circle>
                <circle id="Oval" fill="#1A1919" transform="translate(29.515625, 31.500000) scale(-1, 1) rotate(-180.000000) translate(-29.515625, -31.500000) " cx="29.515625" cy="31.5" r="29.5"></circle>
                <polygon id="Star" fill="#F8CB02" points="92 511.409877 74.0516904 531.365058 65.1061317 506.060354 40.8875386 517.628017 42.306611 490.826202 15.5047957 492.245274 27.0724583 468.026681 1.7677542 459.081122 21.7229353 441.132812 1.7677542 423.184503 27.0724583 414.238944 15.5047957 390.020351 42.306611 391.439423 40.8875386 364.637608 65.1061317 376.205271 74.0516904 350.900567 92 370.855748 109.94831 350.900567 118.893868 376.205271 143.112461 364.637608 141.693389 391.439423 168.495204 390.020351 156.927542 414.238944 182.232246 423.184503 162.277065 441.132812 182.232246 459.081122 156.927542 468.026681 168.495204 492.245274 141.693389 490.826202 143.112461 517.628017 118.893868 506.060354 109.94831 531.365058"></polygon>
                <path d="M293.395233,17.0549939 C282.610165,16.4503929 271.44107,16.1328125 260,16.1328125 C168.873016,16.1328125 95,36.2799988 95,61.1328125 C95,85.9856262 168.873016,106.132812 260,106.132812 C351.126984,106.132812 425,85.9856262 425,61.1328125 C425,55.1798305 420.761581,49.4968309 413.062852,44.296025" id="Path" stroke="#FFFFFF" stroke-width="20" transform="translate(260.000000, 61.132812) scale(-1, 1) translate(-260.000000, -61.132812) "></path>
                <path d="M293.395233,17.0549939 C282.610165,16.4503929 271.44107,16.1328125 260,16.1328125 C168.873016,16.1328125 95,36.2799988 95,61.1328125 C95,85.9856262 168.873016,106.132812 260,106.132812 C351.126984,106.132812 425,85.9856262 425,61.1328125 C425,55.1798305 420.761581,49.4968309 413.062852,44.296025" id="Path" stroke="#000000" transform="translate(260.000000, 61.132812) scale(-1, 1) translate(-260.000000, -61.132812) "></path>
                <ellipse id="Oval" fill="#9EC83D" transform="translate(303.000000, 266.632812) rotate(-90.000000) translate(-303.000000, -266.632812) " cx="303" cy="266.632812" rx="266" ry="26.5"></ellipse>
                <ellipse id="Oval" fill="#9EC83D" transform="translate(335.000000, 266.632812) rotate(-90.000000) translate(-335.000000, -266.632812) " cx="335" cy="266.632812" rx="266" ry="26.5"></ellipse>
                <ellipse id="Oval" fill="#9EC83D" transform="translate(367.000000, 266.632812) rotate(-90.000000) translate(-367.000000, -266.632812) " cx="367" cy="266.632812" rx="266" ry="26.5"></ellipse>
                <ellipse id="Oval" fill="#9EC83D" transform="translate(399.000000, 266.632812) rotate(-90.000000) translate(-399.000000, -266.632812) " cx="399" cy="266.632812" rx="266" ry="26.5"></ellipse>
                <rect id="Rectangle" stroke="#000000" stroke-width="1.4" transform="translate(224.445312, 306.851562) rotate(-45.000000) translate(-224.445312, -306.851562) " x="184.445312" y="109.351562" width="80" height="395" rx="1"></rect>
                <g id="Group-11" transform="translate(226.213079, 308.619329) rotate(-45.000000) translate(-226.213079, -308.619329) translate(11.213079, 284.619329)">
                    <path d="M215.269531,-190.038462 C228.269465,-190.038462 238.807993,-179.499933 238.807993,-166.5 L238.807993,167.172956 L238.807993,167.172956 L216.194661,238.961538 L191.73107,167.172956 L191.73107,-166.5 C191.73107,-179.499933 202.269598,-190.038462 215.269531,-190.038462 Z" id="Rectangle" fill="#000000" transform="translate(215.269531, 24.461538) rotate(90.000000) translate(-215.269531, -24.461538) "></path>
                    <line x1="23.2695312" y1="17.4615385" x2="23.2695312" y2="32.3076925" id="Path-28" stroke="#FFFFFF"></line>
                    <line x1="73.2695312" y1="0.923076923" x2="73.2695312" y2="47.9230769" id="Path-28" stroke="#FFFFFF"></line>
                    <line x1="353.269531" y1="23.5384615" x2="123.269531" y2="23.5384615" id="Path-28" stroke="#FFFFFF"></line>
                    <line x1="353.269531" y1="9.69230769" x2="73.7695312" y2="10.6153846" id="Path-28" stroke="#FFFFFF"></line>
                    <line x1="353.269531" y1="38.3076923" x2="73.7695312" y2="39.2307692" id="Path-28" stroke="#FFFFFF"></line>
                    <line x1="393.039062" y1="0.247274182" x2="393.039062" y2="47.5200015" id="Path-28" stroke="#FFFFFF"></line>
                    <line x1="373.039062" y1="0.247274182" x2="373.039062" y2="47.5200015" id="Path-28" stroke="#FFFFFF"></line>
                    <line x1="353.039062" y1="0.247274182" x2="353.039062" y2="47.5200015" id="Path-28" stroke="#FFFFFF"></line>
                    <line x1="359.039062" y1="0.247274182" x2="359.039062" y2="47.5200015" id="Path-28" stroke="#FFFFFF"></line>
                </g>
                <circle id="Oval" fill="#000000" transform="translate(343.592805, 423.877735) rotate(-45.000000) translate(-343.592805, -423.877735) " cx="343.592805" cy="423.877735" r="9.5"></circle>
                <line x1="68.5698978" y1="197.603565" x2="116.569898" y2="197.603565" id="Path-29" stroke="#000000" stroke-width="1.4" transform="translate(92.569898, 197.603565) rotate(-45.000000) translate(-92.569898, -197.603565) "></line>
                <line x1="94.0153343" y1="225.534283" x2="130.015334" y2="225.534283" id="Path-29" stroke="#000000" stroke-width="1.4" transform="translate(112.015334, 225.534283) rotate(-45.000000) translate(-112.015334, -225.534283) "></line>
                <line x1="116.299606" y1="245.333273" x2="164.299606" y2="245.333273" id="Path-29" stroke="#000000" stroke-width="1.4" transform="translate(140.299606, 245.333273) rotate(-45.000000) translate(-140.299606, -245.333273) "></line>
                <line x1="142.098595" y1="273.617544" x2="178.098595" y2="273.617544" id="Path-29" stroke="#000000" stroke-width="1.4" transform="translate(160.098595, 273.617544) rotate(-45.000000) translate(-160.098595, -273.617544) "></line>
                <line x1="163.67576" y1="292.709427" x2="211.67576" y2="292.709427" id="Path-29" stroke="#000000" stroke-width="1.4" transform="translate(187.675760, 292.709427) rotate(-45.000000) translate(-187.675760, -292.709427) "></line>
                <line x1="213.51638" y1="345.035329" x2="249.51638" y2="345.035329" id="Path-29" stroke="#000000" stroke-width="1.4" transform="translate(231.516380, 345.035329) rotate(-45.000000) translate(-231.516380, -345.035329) "></line>
                <line x1="235.800652" y1="364.834319" x2="283.800652" y2="364.834319" id="Path-29" stroke="#000000" stroke-width="1.4" transform="translate(259.800652, 364.834319) rotate(-45.000000) translate(-259.800652, -364.834319) "></line>
                <line x1="260.892535" y1="392.411483" x2="296.892535" y2="392.411483" id="Path-29" stroke="#000000" stroke-width="1.4" transform="translate(278.892535, 392.411483) rotate(-45.000000) translate(-278.892535, -392.411483) "></line>
                <path d="M260,16.1328125 C168.873016,16.1328125 95,36.2799988 95,61.1328125 C95,85.9856262 168.873016,106.132812 260,106.132812 C329.379691,106.132812 388.758007,94.4543645 413.147687,77.9121762 C417.408328,75.0224158 422.870545,68.5019631 425,64.1308594" id="Path" stroke="#FFFFFF" stroke-width="20"></path>
                <path d="M260,16.1328125 C168.873016,16.1328125 95,36.2799988 95,61.1328125 C95,85.9856262 168.873016,106.132812 260,106.132812 C329.379691,106.132812 388.758007,94.4543645 413.147687,77.9121762 C417.408328,75.0224158 422.870545,68.5019631 425,64.1308594" id="Path" stroke="#000000"></path>
            </g>
        </g>
    </g>
</svg>