<?xml version="1.0" encoding="UTF-8"?>
<svg width="100px" height="100px" viewBox="0 0 100 100" version="1.1" xmlns="http://www.w3.org/2000/svg" xmlns:xlink="http://www.w3.org/1999/xlink">
    <title>Group 76</title>
    <g id="InkRockit_Design" stroke="none" stroke-width="1" fill="none" fill-rule="evenodd">
        <g id="InkRockit_Design-Mobile" transform="translate(-110.000000, -1560.000000)">
            <g id="Group-15" transform="translate(20.000000, 1560.000000)">
                <g id="Group-76" transform="translate(90.000000, 0.000000)">
                    <rect id="Rectangle" fill-opacity="0" fill="#FFFFFF" x="0" y="0" width="100" height="100"></rect>
                    <path d="M58.2808458,97.1521818 C51.6065973,97.1521818 45.3362328,94.5450915 40.6223418,89.8071777 L16.6564724,65.7600601 C16.0191174,65.1241079 15.667,64.2725107 15.667,63.346475 C15.667,61.4795856 17.1790028,59.962226 19.0393012,59.962226 C20.184421,59.962226 21.3258928,60.2336562 22.3523661,60.7468808 L35.2229771,67.2031556 C35.7974479,67.4895782 36.4829215,67.4597679 37.0240393,67.1213953 C37.568805,66.7830227 37.902335,66.1842026 37.902335,65.5407542 L37.902335,22.0529607 C37.902335,20.0037232 39.5625154,18.334 41.6081663,18.334 C43.6538171,18.334 45.3139975,20.0038976 45.3139975,22.0529607 L45.3139975,57.3836977 C45.3139975,58.4101469 46.1441746,59.2432652 47.167,59.2432652 C48.1898254,59.2432652 49.0200025,58.4101469 49.0200025,57.3836977 L49.0200025,40.648113 C49.0200025,38.5988755 50.6801829,36.9291523 52.7258337,36.9291523 C54.7714846,36.9291523 56.431665,38.5990498 56.431665,40.648113 L56.431665,57.3836977 C56.431665,58.4101469 57.2618421,59.2432652 58.2846675,59.2432652 C59.3074929,59.2432652 60.13767,58.4101469 60.13767,57.3836977 L60.13767,44.3670737 C60.13767,42.3178362 61.7978504,40.648113 63.8435012,40.648113 C65.8891521,40.648113 67.5493325,42.3180105 67.5493325,44.3670737 L67.5493325,57.3836977 C67.5493325,58.4101469 68.3795096,59.2432652 69.402335,59.2432652 C70.4251604,59.2432652 71.2553375,58.4101469 71.2553375,57.3836977 L71.2553375,48.0860344 C71.2553375,46.0367969 72.9155179,44.3670737 74.9611687,44.3670737 C77.0068196,44.3670737 78.667,46.0369713 78.667,48.0860344 L78.667,76.6976364 C78.667,87.9774205 69.5208076,97.1521818 58.2808458,97.1521818 Z" id="Path" stroke="#000000" stroke-width="1.4" fill-rule="nonzero"></path>
                    <polyline id="Path" stroke="#000000" stroke-width="1.4" points="17.6025884 67 5 67 5 2 95 2 95 67 78.1493056 67"></polyline>
                </g>
            </g>
        </g>
    </g>
</svg>