<?xml version="1.0" encoding="UTF-8"?>
<svg width="100px" height="100px" viewBox="0 0 100 100" version="1.1" xmlns="http://www.w3.org/2000/svg" xmlns:xlink="http://www.w3.org/1999/xlink">
    <title>Group 79</title>
    <g id="InkRockit_Design" stroke="none" stroke-width="1" fill="none" fill-rule="evenodd">
        <g id="InkRockit_Design-Mobile" transform="translate(-110.000000, -2214.000000)">
            <g id="Group-38" transform="translate(20.000000, 2214.000000)">
                <g id="Group-79" transform="translate(90.000000, 0.000000)">
                    <rect id="Rectangle" fill-opacity="0" fill="#FFFFFF" x="0" y="0" width="100" height="100"></rect>
                    <g id="Group-78" transform="translate(6.000000, 1.000000)" stroke="#000000" stroke-width="1.4">
                        <g id="Group-77" transform="translate(14.700000, 37.240000)" fill-rule="nonzero">
                            <path d="M59.1992589,17.1868816 L58.5892028,16.1892511 C58.4869477,16.0227308 56.0328249,12.0560686 51.2650561,8.08095596 C44.9237498,2.79455838 37.4531698,0 29.6604365,0 C21.8696888,0 14.3807425,2.79306712 8.00320015,8.07697935 C3.20813018,12.0501036 0.726209904,16.0137835 0.622962021,16.1808008 L0,17.1868816 L0.622962021,18.1929624 C0.726209904,18.3599797 3.20813018,22.3236596 8.00320015,26.2967839 C14.3807425,31.5806961 21.8696888,34.3737632 29.6604365,34.3737632 C37.4531698,34.3737632 44.9237498,31.5792048 51.2650561,26.2928073 C56.0328249,22.3176946 58.4869477,18.3510324 58.5892028,18.1840151 L59.1992589,17.1868816 Z" id="Path"></path>
                            <path d="M30.0770428,26.7351492 C24.5490462,26.7351492 20.0513619,22.2374649 20.0513619,16.7094682 C20.0513619,11.1814716 24.5490462,6.68378729 30.0770428,6.68378729 C35.6050395,6.68378729 40.1027237,11.1814716 40.1027237,16.7094682 C40.1027237,22.2374649 35.6050395,26.7351492 30.0770428,26.7351492 Z" id="Path"></path>
                        </g>
                        <path d="M69.9297592,16.8310973 C62.7166023,11.7823109 53.935725,8.82 44.462963,8.82 C19.9067466,8.82 0,28.7267466 0,53.282963 C0,77.8391793 19.9067466,97.7459259 44.462963,97.7459259 C69.0191793,97.7459259 88.9259259,77.8391793 88.9259259,53.282963" id="Path" stroke-linecap="round" fill-rule="nonzero"></path>
                        <polyline id="Path" stroke-linecap="round" transform="translate(59.615958, 11.342593) rotate(-287.000000) translate(-59.615958, -11.342593) " points="50.9955874 2.72222222 68.2363281 2.72222222 68.2363281 19.962963"></polyline>
                    </g>
                </g>
            </g>
        </g>
    </g>
</svg>