<?xml version="1.0" encoding="UTF-8"?>
<svg width="276px" height="126px" viewBox="0 0 276 126" version="1.1" xmlns="http://www.w3.org/2000/svg" xmlns:xlink="http://www.w3.org/1999/xlink">
    <title>Group 64</title>
    <g id="InkRockit_Folder" stroke="none" stroke-width="1" fill="none" fill-rule="evenodd">
        <g id="InkRockit_Photoframe-1440" transform="translate(-944.000000, -1296.000000)">
            <g id="Group-40" transform="translate(-561.000000, 1170.000000)">
                <g id="Group-38" transform="translate(780.000000, 100.000000)">
                    <g id="Group-64" transform="translate(726.000000, 27.000000)">
                        <path d="M58.491807,0 L269,0 C271.761424,3.0488837e-14 274,2.23857625 274,5 L274,119 C274,121.761424 271.761424,124 269,124 L58.4987379,124 C57.0867299,124 55.7405503,123.402973 54.7927026,122.356382 L0,61.855619 L0,61.855619 L54.7935613,1.63503662 C55.7411162,0.593631297 57.083835,-1.31883907e-15 58.491807,0 Z" id="Rectangle" stroke="#000000" stroke-width="2" fill="#A165BC" fill-rule="nonzero" stroke-linejoin="round" transform="translate(137.000000, 62.000000) scale(1, -1) translate(-137.000000, -62.000000) "></path>
                        <g id="Group-28" transform="translate(66.000000, 14.000000)">
                            <path d="M9.408,26.144 C10.816,26.144 12.068,25.88 13.164,25.352 C14.26,24.824 15.16,24.136 15.864,23.288 C16.568,22.44 17.08,21.52 17.4,20.528 L17.4,20.528 L17.4,16.472 L8.784,16.472 L8.784,19.424 L13.968,19.424 C13.664,20.416 13.144,21.18 12.408,21.716 C11.672,22.252 10.816,22.52 9.84,22.52 C8.32,22.52 7.148,22.088 6.324,21.224 C5.5,20.36 5.088,19.12 5.088,17.504 C5.088,16.016 5.48,14.836 6.264,13.964 C7.048,13.092 8.088,12.656 9.384,12.656 C10.216,12.656 10.928,12.836 11.52,13.196 C12.112,13.556 12.552,14.04 12.84,14.648 L12.84,14.648 L17.184,14.648 C16.848,12.872 15.992,11.464 14.616,10.424 C13.24,9.384 11.488,8.864 9.36,8.864 C7.664,8.864 6.18,9.228 4.908,9.956 C3.636,10.684 2.652,11.704 1.956,13.016 C1.26,14.328 0.912,15.824 0.912,17.504 C0.912,19.184 1.26,20.68 1.956,21.992 C2.652,23.304 3.64,24.324 4.92,25.052 C6.2,25.78 7.696,26.144 9.408,26.144 Z M34.764,26 L34.764,22.712 L28.308,22.712 L28.308,18.944 L34.044,18.944 L34.044,15.848 L28.308,15.848 L28.308,12.296 L34.764,12.296 L34.764,9.032 L24.204,9.032 L24.204,26 L34.764,26 Z M49.176,26 L49.176,12.296 L53.784,12.296 L53.784,9.032 L40.488,9.032 L40.488,12.296 L45.048,12.296 L45.048,26 L49.176,26 Z M76.896,26 L76.896,12.296 L81.504,12.296 L81.504,9.032 L68.208,9.032 L68.208,12.296 L72.768,12.296 L72.768,26 L76.896,26 Z M91.836,26 L91.836,18.92 L98.268,18.92 L98.268,26 L102.396,26 L102.396,9.032 L98.268,9.032 L98.268,15.608 L91.836,15.608 L91.836,9.032 L87.732,9.032 L87.732,26 L91.836,26 Z M120.288,26 L120.288,22.712 L113.832,22.712 L113.832,18.944 L119.568,18.944 L119.568,15.848 L113.832,15.848 L113.832,12.296 L120.288,12.296 L120.288,9.032 L109.728,9.032 L109.728,26 L120.288,26 Z M9.888,56 L12.624,44.648 L15.336,56 L20.424,56 L24.48,39.032 L20.04,39.032 L17.832,51.32 L14.856,39.032 L10.368,39.032 L7.392,51.32 L5.208,39.032 L0.744,39.032 L4.8,56 L9.888,56 Z M104.712,56 L107.448,44.648 L110.16,56 L115.248,56 L119.304,39.032 L114.864,39.032 L112.656,51.32 L109.68,39.032 L105.192,39.032 L102.216,51.32 L100.032,39.032 L95.568,39.032 L99.624,56 L104.712,56 Z M5.52,86 L5.52,79.136 L10.896,79.136 L10.896,76.016 L5.52,76.016 L5.52,72.296 L12.48,72.296 L12.48,69.032 L1.416,69.032 L1.416,86 L5.52,86 Z M22.188,86 L23.244,82.904 L29.604,82.904 L30.66,86 L35.028,86 L28.812,69.152 L24.084,69.152 L17.868,86 L22.188,86 Z M28.548,79.784 L24.3,79.784 L26.436,73.544 L28.548,79.784 Z M48.864,86.144 C51.024,86.144 52.812,85.572 54.228,84.428 C55.644,83.284 56.56,81.752 56.976,79.832 L56.976,79.832 L52.632,79.832 C52.312,80.6 51.82,81.208 51.156,81.656 C50.492,82.104 49.704,82.328 48.792,82.328 C47.592,82.328 46.624,81.892 45.888,81.02 C45.152,80.148 44.784,78.976 44.784,77.504 C44.784,76.032 45.152,74.856 45.888,73.976 C46.624,73.096 47.592,72.656 48.792,72.656 C49.704,72.656 50.492,72.88 51.156,73.328 C51.82,73.776 52.312,74.392 52.632,75.176 L52.632,75.176 L56.976,75.176 C56.56,73.24 55.644,71.704 54.228,70.568 C52.812,69.432 51.024,68.864 48.864,68.864 C47.216,68.864 45.768,69.228 44.52,69.956 C43.272,70.684 42.308,71.704 41.628,73.016 C40.948,74.328 40.608,75.824 40.608,77.504 C40.608,79.184 40.948,80.68 41.628,81.992 C42.308,83.304 43.272,84.324 44.52,85.052 C45.768,85.78 47.216,86.144 48.864,86.144 Z M71.364,86 L71.364,72.296 L75.972,72.296 L75.972,69.032 L62.676,69.032 L62.676,72.296 L67.236,72.296 L67.236,86 L71.364,86 Z M90.264,86.168 C91.848,86.168 93.292,85.796 94.596,85.052 C95.9,84.308 96.932,83.272 97.692,81.944 C98.452,80.616 98.832,79.12 98.832,77.456 C98.832,75.792 98.456,74.3 97.704,72.98 C96.952,71.66 95.924,70.628 94.62,69.884 C93.316,69.14 91.864,68.768 90.264,68.768 C88.68,68.768 87.236,69.14 85.932,69.884 C84.628,70.628 83.596,71.66 82.836,72.98 C82.076,74.3 81.696,75.792 81.696,77.456 C81.696,79.12 82.076,80.616 82.836,81.944 C83.596,83.272 84.628,84.308 85.932,85.052 C87.236,85.796 88.68,86.168 90.264,86.168 Z M90.264,82.328 C88.92,82.328 87.852,81.888 87.06,81.008 C86.268,80.128 85.872,78.944 85.872,77.456 C85.872,75.952 86.268,74.764 87.06,73.892 C87.852,73.02 88.92,72.584 90.264,72.584 C91.608,72.584 92.676,73.024 93.468,73.904 C94.26,74.784 94.656,75.968 94.656,77.456 C94.656,78.944 94.256,80.128 93.456,81.008 C92.656,81.888 91.592,82.328 90.264,82.328 Z M109.74,86 L109.74,79.592 L110.676,79.592 L114.348,86 L118.884,86 L114.852,79.328 C116.148,79.008 117.136,78.416 117.816,77.552 C118.496,76.688 118.836,75.64 118.836,74.408 C118.836,73.368 118.604,72.444 118.14,71.636 C117.676,70.828 116.98,70.192 116.052,69.728 C115.124,69.264 113.988,69.032 112.644,69.032 L112.644,69.032 L105.636,69.032 L105.636,86 L109.74,86 Z M112.284,76.784 L109.74,76.784 L109.74,72.488 L112.284,72.488 C113.084,72.488 113.68,72.68 114.072,73.064 C114.464,73.448 114.66,73.976 114.66,74.648 C114.66,75.352 114.468,75.884 114.084,76.244 C113.7,76.604 113.1,76.784 112.284,76.784 L112.284,76.784 Z" id="GETTHEWWFACTOR" fill="#FFFFFF" fill-rule="nonzero"></path>
                            <rect id="Rectangle" stroke="#FFFFFF" stroke-width="3.8" x="30" y="41" width="59" height="14" rx="7"></rect>
                            <line x1="139.433594" y1="11" x2="139.5" y2="68.5" id="Path-12" stroke="#FFFFFF" stroke-width="3.8" stroke-linecap="round"></line>
                            <line x1="139.5" y1="84.5" x2="139.5" y2="76.5" id="Path-12" stroke="#FFFFFF" stroke-width="3.8" stroke-linecap="round"></line>
                            <line x1="157.433594" y1="11" x2="157.5" y2="68.5" id="Path-12" stroke="#FFFFFF" stroke-width="3.8" stroke-linecap="round"></line>
                            <line x1="157.5" y1="84.5" x2="157.5" y2="76.5" id="Path-12" stroke="#FFFFFF" stroke-width="3.8" stroke-linecap="round"></line>
                            <line x1="177.433594" y1="11" x2="177.5" y2="68.5" id="Path-12" stroke="#FFFFFF" stroke-width="3.8" stroke-linecap="round"></line>
                            <line x1="177.5" y1="84.5" x2="177.5" y2="76.5" id="Path-12" stroke="#FFFFFF" stroke-width="3.8" stroke-linecap="round"></line>
                        </g>
                    </g>
                </g>
            </g>
        </g>
    </g>
</svg>