<?xml version="1.0" standalone="no"?>
<!DOCTYPE svg PUBLIC "-//W3C//DTD SVG 1.1//EN" "http://www.w3.org/Graphics/SVG/1.1/DTD/svg11.dtd" >
<svg xmlns="http://www.w3.org/2000/svg" xmlns:xlink="http://www.w3.org/1999/xlink" version="1.1">
<metadata></metadata>
<defs>
<font id="creighton_promedium" horiz-adv-x="817" >
<font-face units-per-em="2048" ascent="1536" descent="-512" />
<missing-glyph horiz-adv-x="389" />
<glyph unicode="&#xfb01;" d="M-20 926v69q0 29 16 45.5t45 16.5h37v82q0 119 66.5 183t172.5 64q59 0 99.5 -23t40.5 -65v-53q0 -53 -51 -53q-6 0 -19 1t-22 1q-70 0 -70 -78v-59h100q29 0 45.5 -16.5t16.5 -45.5v-69q0 -29 -16.5 -45.5t-45.5 -16.5h-100v-803q0 -29 -16.5 -45t-45.5 -16h-94 q-61 0 -61 61v803h-37q-29 0 -45 16.5t-16 45.5zM524 1227v78q0 29 16.5 45t45.5 16h102q29 0 45.5 -16t16.5 -45v-78q0 -29 -16.5 -45.5t-45.5 -16.5h-102q-29 0 -45.5 16.5t-16.5 45.5zM528 61v934q0 29 16.5 45.5t45.5 16.5h94q29 0 45 -16.5t16 -45.5v-934 q0 -61 -61 -61h-94q-29 0 -45.5 16t-16.5 45z" />
<glyph unicode="&#xfb02;" d="M-20 926v69q0 29 16 45.5t45 16.5h37v82q0 119 66.5 183t172.5 64q59 0 99.5 -23t40.5 -65v-53q0 -53 -51 -53q-6 0 -19 1t-22 1q-70 0 -70 -78v-59h100q29 0 45.5 -16.5t16.5 -45.5v-69q0 -29 -16.5 -45.5t-45.5 -16.5h-100v-803q0 -29 -16.5 -45t-45.5 -16h-94 q-61 0 -61 61v803h-37q-29 0 -45 16.5t-16 45.5zM528 61v1244q0 29 16.5 45t45.5 16h94q61 0 61 -61v-1244q0 -61 -61 -61h-94q-29 0 -45.5 16t-16.5 45z" />
<glyph horiz-adv-x="0" />
<glyph horiz-adv-x="682" />
<glyph unicode=" "  horiz-adv-x="389" />
<glyph unicode="&#x09;" horiz-adv-x="389" />
<glyph unicode="&#xa0;" horiz-adv-x="389" />
<glyph unicode="!" horiz-adv-x="385" d="M74 1305q-1 29 14.5 45t44.5 16h119q29 0 44.5 -16t14.5 -45l-30 -854q-3 -62 -62 -62h-53q-59 0 -62 62zM82 61v103q0 61 61 61h99q61 0 61 -61v-103q0 -61 -61 -61h-99q-61 0 -61 61z" />
<glyph unicode="&#x22;" horiz-adv-x="591" d="M51 1305q0 28 16 44.5t46 16.5h73q30 0 46 -16.5t16 -44.5l-29 -418q-3 -53 -53 -53h-33q-50 0 -53 53zM344 1305q0 28 16 44.5t46 16.5h73q30 0 46 -16.5t16 -44.5l-29 -418q-3 -53 -53 -53h-33q-50 0 -53 53z" />
<glyph unicode="#" horiz-adv-x="886" d="M23 719l6 53q6 51 57 51h115l22 154h-106q-27 0 -41 13.5t-10 39.5l8 53q6 54 57 54h115l24 176q6 53 56 53h45q57 0 51 -53l-25 -176h162l25 176q6 53 55 53h45q57 0 51 -53l-24 -176h104q27 0 40 -14t9 -40l-8 -53q-6 -53 -55 -53h-113l-22 -154h104q55 0 49 -53 l-6 -53q-6 -53 -57 -53h-113l-25 -175q-6 -53 -57 -53h-45q-55 0 -49 53l25 175h-162l-25 -175q-6 -53 -57 -53h-45q-55 0 -49 53l24 175h-106q-55 0 -49 55zM352 823h162l23 154h-162z" />
<glyph unicode="$" horiz-adv-x="729" d="M43 395v68q0 28 16 41.5t37 13.5q15 0 47 -14t78 -28.5t94 -14.5q67 0 111.5 30t44.5 97q0 36 -18 66t-47.5 50.5t-67.5 41.5t-77 39.5t-77 46t-67.5 58.5t-47.5 79.5t-18 107.5q0 108 61 183t171 98v96q0 59 57 59h53q58 0 58 -59v-94q74 -14 125 -45.5t51 -65.5v-69 q0 -23 -12.5 -37.5t-34.5 -14.5q-8 0 -73 23t-122 23q-58 0 -90.5 -25t-32.5 -72q0 -32 23 -58.5t60 -47.5t82 -43.5t90 -52t82 -66t60 -92.5t23 -125q0 -123 -62.5 -201.5t-168.5 -107.5v-103q0 -59 -58 -59h-53q-57 0 -57 59v90q-100 6 -170 42.5t-70 82.5z" />
<glyph unicode="%" horiz-adv-x="1488" d="M61 784v342q0 124 73 191t183 67t183 -67t73 -191v-342q0 -124 -73 -191t-183 -67t-183 67t-73 191zM203 784q0 -65 32 -99t82 -34t82.5 34t32.5 99v342q0 65 -32.5 99.5t-82.5 34.5t-82 -34.5t-32 -99.5v-342zM382.5 15q-7.5 15 0.5 34l580 1268q22 49 65 49h51 q20 0 27.5 -15t-0.5 -34l-580 -1268q-22 -49 -65 -49h-51q-20 0 -27.5 15zM915 240v342q0 124 73 191t183 67t183 -67t73 -191v-342q0 -124 -73 -191t-183 -67t-183 67t-73 191zM1057 240q0 -65 32 -99.5t82 -34.5t82.5 34.5t32.5 99.5v342q0 65 -32.5 99t-82.5 34t-82 -34 t-32 -99v-342z" />
<glyph unicode="&#x26;" horiz-adv-x="993" d="M51 385q0 115 52 201t145 133q-156 103 -156 295q0 176 116 279.5t310 103.5q138 0 215.5 -36t77.5 -89v-51q0 -30 -15 -46t-40 -16q-12 0 -81.5 18.5t-133.5 18.5q-92 0 -158 -51t-66 -144q0 -88 59 -137t161 -49h401q31 0 48.5 -16.5t17.5 -46.5v-74q0 -31 -17.5 -47.5 t-48.5 -16.5h-14q-25 0 -25 -24v-524q0 -31 -17 -48.5t-48 -17.5h-324q-206 0 -332.5 102.5t-126.5 282.5zM276 399q0 -69 36 -115t86.5 -64.5t111.5 -18.5h139q25 0 25 24v365q0 24 -25 24h-139q-104 0 -169 -56.5t-65 -158.5z" />
<glyph unicode="'" horiz-adv-x="299" d="M51 1305q0 28 16 44.5t46 16.5h73q30 0 46 -16.5t16 -44.5l-29 -418q-3 -53 -53 -53h-33q-50 0 -53 53z" />
<glyph unicode="(" horiz-adv-x="448" d="M72 686q0 153 22.5 294.5t60 249.5t70 178t68.5 130q15 27 32.5 40t47.5 13h57q39 0 39 -43q0 -10 -19.5 -51.5t-47 -112t-55 -164t-47 -235.5t-19.5 -299t19.5 -299t47 -235.5t55 -164t47 -112t19.5 -51.5q0 -43 -39 -43h-57q-30 0 -47.5 13t-32.5 40q-36 60 -68.5 130 t-70 178t-60 249.5t-22.5 294.5z" />
<glyph unicode=")" horiz-adv-x="448" d="M-20 -176q0 10 19.5 51.5t47 112t55 164t47 235.5t19.5 299t-19.5 299t-47 235.5t-55 164t-47 112t-19.5 51.5q0 43 38 43h58q30 0 47.5 -13t32.5 -40q36 -60 68.5 -130t70 -178t60 -249.5t22.5 -294.5t-22.5 -294.5t-60 -249.5t-70 -178t-68.5 -130q-15 -27 -32.5 -40 t-47.5 -13h-58q-38 0 -38 43z" />
<glyph unicode="*" horiz-adv-x="655" d="M39 915q-23 41 22 60l168 74l-168 73q-45 19 -22 60l29 51q23 40 63 8l148 -111l-21 185q-6 51 41 51h57q47 0 41 -51l-22 -185l149 111q19 15 36.5 13t27.5 -21l28 -51q23 -41 -22 -60l-170 -73l170 -74q45 -19 22 -60l-28 -51q-10 -19 -27.5 -21t-36.5 13l-149 109 l22 -183q6 -51 -41 -51h-57q-47 0 -41 51l21 185l-148 -111q-40 -32 -63 8z" />
<glyph unicode="+" horiz-adv-x="692" d="M51 520v55q0 56 60 56h149v151q0 60 55 60h60q55 0 55 -60v-151h152q59 0 59 -56v-55q0 -55 -59 -55h-152v-154q0 -59 -55 -59h-60q-55 0 -55 59v154h-149q-60 0 -60 55z" />
<glyph unicode="," horiz-adv-x="344" d="M61 61v103q0 28 16 44.5t46 16.5h98q30 0 46 -16.5t16 -44.5v-96q0 -35 -25 -76l-90 -148q-16 -24 -43 -24h-19q-14 0 -19.5 10t1.5 27l62 143h-27q-30 0 -46 16.5t-16 44.5z" />
<glyph unicode="-" horiz-adv-x="573" d="M51 569v64q0 29 16.5 45t45.5 16h348q61 0 61 -61v-64q0 -61 -61 -61h-348q-29 0 -45.5 16t-16.5 45z" />
<glyph unicode="." horiz-adv-x="344" d="M61 61v103q0 28 16 44.5t46 16.5h98q30 0 46 -16.5t16 -44.5v-103q0 -28 -16 -44.5t-46 -16.5h-98q-30 0 -46 16.5t-16 44.5z" />
<glyph unicode="/" horiz-adv-x="708" d="M16 -14l480 1394q22 68 86 68h57q34 0 48.5 -18t4.5 -50l-479 -1394q-22 -68 -86 -68h-57q-34 0 -49 18t-5 50z" />
<glyph unicode="0" horiz-adv-x="966" d="M61 397v572q0 203 119.5 315.5t302.5 112.5t302.5 -112.5t119.5 -315.5v-572q0 -203 -119.5 -315.5t-302.5 -112.5t-302.5 112.5t-119.5 315.5zM283 397q0 -114 55 -172.5t145 -58.5q91 0 146 58.5t55 172.5v572q0 114 -55 172.5t-146 58.5q-90 0 -145 -58.5t-55 -172.5 v-572z" />
<glyph unicode="1" horiz-adv-x="434" d="M0 1233v70q0 30 17.5 46.5t48.5 16.5h102q85 0 134.5 -47.5t49.5 -142.5v-1113q0 -63 -65 -63h-90q-31 0 -48.5 16.5t-17.5 46.5v1082q0 24 -25 24h-40q-31 0 -48.5 16.5t-17.5 47.5z" />
<glyph unicode="2" horiz-adv-x="843" d="M41 63v144q0 100 29 186.5t76 148.5t103.5 116.5t113 99.5t103.5 87t76 91t29 100q0 75 -54 119.5t-159 44.5q-70 0 -141.5 -21.5t-83.5 -21.5q-55 0 -55 60v57q0 56 88 89.5t196 33.5q195 0 313 -93.5t118 -267.5q0 -80 -29.5 -148.5t-76 -118.5t-103 -96.5t-113.5 -92 t-103.5 -94t-76 -113.5t-29.5 -140v-12q0 -24 25 -24h424q31 0 48 -16.5t17 -47.5v-70q0 -63 -65 -63h-605q-65 0 -65 63z" />
<glyph unicode="3" horiz-adv-x="823" d="M10 106v48q0 30 17 45.5t41 15.5q18 0 47.5 -13.5t75.5 -26.5t104 -13q124 0 189 68.5t65 175.5q0 96 -69.5 155.5t-182.5 59.5h-51q-31 0 -48.5 16.5t-17.5 46.5v66q0 30 17.5 46.5t48.5 16.5h41q102 0 160.5 52.5t58.5 144.5q0 90 -58.5 140t-156.5 50 q-57 0 -110.5 -17.5t-67.5 -17.5q-24 0 -38 15t-14 41v53q0 57 75.5 90t180.5 33q177 0 290.5 -103t113.5 -274q0 -79 -40 -160t-124 -131q97 -44 155 -127t58 -203q0 -87 -29.5 -164t-85.5 -136.5t-144 -94.5t-198 -35q-123 0 -213 39t-90 98z" />
<glyph unicode="4" horiz-adv-x="886" d="M10 305v39q0 42 23 90l395 866q29 66 84 66h164q65 0 65 -63v-840q0 -25 25 -25h45q31 0 48.5 -16.5t17.5 -46.5v-70q0 -30 -17.5 -46.5t-48.5 -16.5h-45q-25 0 -25 -25v-154q0 -63 -65 -63h-90q-31 0 -48.5 16.5t-17.5 46.5v154q0 25 -24 25h-420q-31 0 -48.5 16.5 t-17.5 46.5zM261.5 443q3.5 -5 8.5 -5h226q24 0 24 25v559l-258 -565q-4 -9 -0.5 -14z" />
<glyph unicode="5" horiz-adv-x="833" d="M41 84v61q0 58 55 58q10 0 70 -18.5t129 -18.5q118 0 192 72t74 198q0 117 -77.5 187.5t-211.5 70.5q-42 0 -87 -11t-56 -11q-57 0 -57 59v572q0 63 65 63h502q31 0 48.5 -16.5t17.5 -46.5v-70q0 -31 -17.5 -47.5t-48.5 -16.5h-328q-24 0 -24 -24v-234q0 -14 4.5 -19 t21.5 -5q96 0 178.5 -26.5t148.5 -79t104 -141t38 -204.5q0 -208 -129.5 -337.5t-339.5 -129.5q-123 0 -197.5 35t-74.5 80z" />
<glyph unicode="6" horiz-adv-x="946" d="M51 397v183q0 107 18.5 209t50 183t72 152.5t84.5 123t88 89t82 56t66 18.5h68q41 0 41 -39q0 -20 -23 -39q-182 -151 -258 -350q47 25 133 25q183 0 302.5 -112.5t119.5 -315.5v-183q0 -203 -119.5 -315.5t-302.5 -112.5t-302.5 112.5t-119.5 315.5zM272 397 q0 -114 55 -172.5t146 -58.5t146 58.5t55 172.5v183q0 114 -55 172.5t-146 58.5t-146 -58.5t-55 -172.5v-183z" />
<glyph unicode="7" horiz-adv-x="782" d="M10 1233v70q0 30 17.5 46.5t48.5 16.5h631q65 0 65 -63v-66q0 -42 -16 -82l-428 -1092q-23 -63 -86 -63h-107q-31 0 -44.5 20.5t-2.5 49.5l428 1075q0 24 -24 24h-416q-31 0 -48.5 16.5t-17.5 47.5z" />
<glyph unicode="8" horiz-adv-x="929" d="M41 391q0 104 46.5 193t127.5 145q-127 107 -127 283q0 171 108.5 278t268.5 107t268.5 -107t108.5 -278q0 -176 -127 -283q80 -57 127 -146t47 -192q0 -124 -57.5 -221t-154 -149t-212.5 -52t-212.5 52t-154 149t-57.5 221zM262 395q0 -111 57.5 -170t145.5 -59 t145.5 59t57.5 170t-57.5 170.5t-145.5 59.5t-145.5 -59.5t-57.5 -170.5zM299 1006q0 -83 43.5 -138t120.5 -55t121.5 55t44.5 138t-44.5 138.5t-121.5 55.5t-120.5 -55.5t-43.5 -138.5z" />
<glyph unicode="9" horiz-adv-x="946" d="M51 801v182q0 203 119.5 315.5t302.5 112.5t302.5 -112.5t119.5 -315.5v-182q0 -143 -34.5 -278t-88 -232.5t-116 -172t-121 -112t-101.5 -37.5h-67q-41 0 -41 39q0 21 22 39q179 146 258 348q-64 -22 -133 -22q-183 0 -302.5 112.5t-119.5 315.5zM272 801 q0 -114 55.5 -173t145.5 -59q89 0 145 58t56 174v182q0 114 -55 172.5t-146 58.5t-146 -58.5t-55 -172.5v-182z" />
<glyph unicode=":" horiz-adv-x="344" d="M61 61v103q0 28 16 44.5t46 16.5h98q30 0 46 -16.5t16 -44.5v-103q0 -28 -16 -44.5t-46 -16.5h-98q-30 0 -46 16.5t-16 44.5zM61 633v102q0 28 16 45t46 17h98q30 0 46 -17t16 -45v-102q0 -28 -16 -45t-46 -17h-98q-30 0 -46 17t-16 45z" />
<glyph unicode=";" horiz-adv-x="344" d="M61 61v103q0 28 16 44.5t46 16.5h98q30 0 46 -16.5t16 -44.5v-96q0 -35 -25 -76l-90 -148q-16 -24 -43 -24h-19q-14 0 -19.5 10t1.5 27l62 143h-27q-30 0 -46 16.5t-16 44.5zM61 633v102q0 28 16 45t46 17h98q30 0 46 -17t16 -45v-102q0 -28 -16 -45t-46 -17h-98 q-30 0 -46 17t-16 45z" />
<glyph unicode="&#x3c;" horiz-adv-x="692" d="M51 541v43q0 46 60 75l471 226q25 12 42 2.5t17 -37.5v-59q0 -47 -59 -72l-340 -158l340 -155q59 -25 59 -72v-60q0 -27 -17 -36.5t-42 2.5l-471 225q-60 29 -60 76z" />
<glyph unicode="=" horiz-adv-x="692" d="M51 383v55q0 56 60 56h471q59 0 59 -56v-55q0 -55 -59 -55h-471q-60 0 -60 55zM51 657v56q0 55 60 55h471q59 0 59 -55v-56q0 -55 -59 -55h-471q-60 0 -60 55z" />
<glyph unicode="&#x3e;" horiz-adv-x="692" d="M51 274v60q0 47 60 72l340 155l-340 158q-60 25 -60 72v59q0 27 17.5 37t42.5 -2l471 -226q59 -29 59 -75v-43q0 -47 -59 -76l-471 -225q-25 -12 -42.5 -2.5t-17.5 36.5z" />
<glyph unicode="?" horiz-adv-x="759" d="M20 1208v47q0 44 47 78t109.5 49t124.5 15q194 0 306 -94t112 -259q0 -63 -20 -118.5t-52.5 -96t-71.5 -78t-78.5 -71.5t-72 -68.5t-52.5 -76.5t-20 -89q0 -63 -61 -63h-45q-30 0 -47 16t-17 45q0 67 17.5 125t46 99.5t62.5 78t68 68t62.5 63t46 70t17.5 80.5 q0 87 -60.5 129.5t-154.5 42.5q-54 0 -97 -12t-70 -23.5t-42 -11.5q-58 0 -58 55zM158 61v103q0 61 61 61h98q30 0 46 -16.5t16 -44.5v-103q0 -28 -16 -44.5t-46 -16.5h-98q-61 0 -61 61z" />
<glyph unicode="@" horiz-adv-x="1304" d="M72 528v310q0 116 31.5 210.5t85 158.5t128 107.5t158 63t176.5 19.5t177 -19.5t158.5 -63t129 -107.5t86 -158.5t31.5 -210.5v-301q0 -127 -64.5 -200t-173.5 -73q-37 0 -71 9.5t-56.5 23t-39 27t-24.5 22.5l-7 10q-2 -3 -6.5 -9t-20 -20.5t-33 -25.5t-45.5 -20t-59 -9 q-101 0 -167.5 66t-66.5 176q0 145 95 225t251 80q-6 105 -120 105q-39 0 -76.5 -9.5t-44.5 -9.5q-14 0 -24.5 9t-10.5 28v35q0 29 45 49.5t129 20.5q116 0 185 -59t69 -181v-305q0 -53 28 -80t68 -27q46 0 71.5 33t25.5 92v318q0 115 -36 201t-99 135.5t-139 73.5t-165 24 t-164.5 -24t-138 -73.5t-98 -135.5t-35.5 -201v-310q0 -234 109.5 -337t318.5 -103q40 0 84 10.5t55 10.5q21 0 33 -21l16 -33q7 -12 7 -18q0 -26 -48 -42.5t-90.5 -21t-72.5 -4.5q-555 0 -555 559zM553 526q0 -58 25 -88t71 -30q41 0 68.5 30t27.5 88v174 q-87 0 -139.5 -44.5t-52.5 -129.5z" />
<glyph unicode="A" horiz-adv-x="956" d="M-4 80l328 1223q16 63 77 63h158q62 0 78 -63l324 -1223q10 -39 -4 -59.5t-46 -20.5h-106q-61 0 -78 66l-72 280q-6 21 -24 21h-309q-19 0 -25 -21l-74 -280q-17 -66 -78 -66h-100q-32 0 -45.5 20.5t-3.5 59.5zM360 592q-7 -25 17 -25h198q24 0 17 25l-115 448z" />
<glyph unicode="B" horiz-adv-x="970" d="M82 66v1234q0 31 17 48.5t48 17.5h306q200 0 318 -97t118 -274q0 -182 -158 -278q199 -94 199 -320q0 -185 -125.5 -291t-333.5 -106h-324q-31 0 -48 17.5t-17 48.5zM307 225q0 -24 25 -24h139q62 0 112.5 19t86 67.5t35.5 120.5q0 104 -68.5 155t-165.5 51h-139 q-25 0 -25 -24v-365zM307 829q0 -24 25 -24h121q93 0 152 44.5t59 135.5q0 93 -58.5 136.5t-152.5 43.5h-121q-25 0 -25 -24v-312z" />
<glyph unicode="C" horiz-adv-x="823" d="M61 397v572q0 138 62.5 237t162.5 145t224 46q138 0 215.5 -36t77.5 -89v-51q0 -30 -17 -47t-43 -17q-12 0 -79.5 19.5t-131.5 19.5q-120 0 -182.5 -65t-62.5 -183v-530q0 -118 62.5 -183t182.5 -65q64 0 131.5 19.5t79.5 19.5q26 0 43 -17t17 -47v-51q0 -53 -77.5 -89 t-215.5 -36q-124 0 -224 46t-162.5 145t-62.5 237z" />
<glyph unicode="D" horiz-adv-x="1001" d="M82 63v1240q0 63 65 63h369q119 0 213.5 -47.5t152.5 -146t58 -234.5v-510q0 -136 -58 -234.5t-152.5 -146t-213.5 -47.5h-369q-65 0 -65 63zM307 225q0 -24 25 -24h184q91 0 145 56.5t54 170.5v510q0 114 -54 170.5t-145 56.5h-184q-25 0 -25 -24v-916z" />
<glyph unicode="E" horiz-adv-x="835" d="M82 66v1234q0 31 17 48.5t48 17.5h572q65 0 65 -63v-74q0 -31 -17 -47.5t-48 -16.5h-387q-25 0 -25 -24v-303q0 -25 25 -25h260q65 0 65 -63v-74q0 -31 -17 -47.5t-48 -16.5h-260q-25 0 -25 -24v-363q0 -24 25 -24h407q31 0 48.5 -16.5t17.5 -47.5v-74q0 -30 -17.5 -46.5 t-48.5 -16.5h-592q-31 0 -48 17.5t-17 48.5z" />
<glyph unicode="F" horiz-adv-x="794" d="M82 66v1234q0 31 17 48.5t48 17.5h572q65 0 65 -63v-74q0 -31 -17 -47.5t-48 -16.5h-387q-25 0 -25 -24v-324q0 -24 25 -24h260q31 0 48 -16.5t17 -47.5v-74q0 -63 -65 -63h-260q-25 0 -25 -25v-501q0 -31 -17 -48.5t-48 -17.5h-95q-31 0 -48 17.5t-17 48.5z" />
<glyph unicode="G" horiz-adv-x="960" d="M61 397v551q0 208 121 328.5t303 120.5q141 0 229.5 -35t88.5 -86v-55q0 -30 -17 -47t-43 -17q-12 0 -81.5 19.5t-133.5 19.5q-120 0 -180.5 -64.5t-60.5 -183.5v-551q0 -113 57.5 -170t149.5 -57q91 0 144.5 56.5t53.5 170.5v199q0 25 -24 25h-115q-31 0 -48.5 16.5 t-17.5 46.5v70q0 30 17.5 46.5t48.5 16.5h291q31 0 48 -17t17 -48v-355q0 -205 -116 -316.5t-308 -111.5q-119 0 -213.5 47.5t-152.5 146t-58 234.5z" />
<glyph unicode="H" horiz-adv-x="1032" d="M82 63v1237q0 31 17 48.5t48 17.5h95q31 0 48 -17.5t17 -48.5v-471q0 -24 25 -24h368q25 0 25 24v471q0 31 17.5 48.5t48.5 17.5h94q31 0 48 -17.5t17 -48.5v-1237q0 -63 -65 -63h-94q-31 0 -48.5 16.5t-17.5 46.5v517q0 24 -25 24h-368q-25 0 -25 -24v-517 q0 -63 -65 -63h-95q-65 0 -65 63z" />
<glyph unicode="I" horiz-adv-x="389" d="M82 63v1237q0 31 17 48.5t48 17.5h95q31 0 48 -17.5t17 -48.5v-1237q0 -63 -65 -63h-95q-65 0 -65 63z" />
<glyph unicode="J" horiz-adv-x="561" d="M-10 72v65q0 27 15 41.5t34 14.5q16 0 54.5 -11.5t68.5 -11.5q96 0 96 115v1015q0 31 17.5 48.5t48.5 17.5h94q31 0 48 -17.5t17 -48.5v-1019q0 -141 -74.5 -226.5t-215.5 -85.5q-89 0 -146 28.5t-57 74.5z" />
<glyph unicode="K" horiz-adv-x="960" d="M82 63v1237q0 31 17 48.5t48 17.5h95q31 0 48 -17.5t17 -48.5v-540l385 551q40 55 94 55h117q33 0 45.5 -23t-10.5 -57l-340 -477l373 -729q16 -37 1 -58.5t-48 -21.5h-99q-63 0 -90 55l-278 555l-150 -213v-334q0 -63 -65 -63h-95q-65 0 -65 63z" />
<glyph unicode="L" horiz-adv-x="792" d="M82 63v1237q0 31 17 48.5t48 17.5h95q31 0 48 -17.5t17 -48.5v-1075q0 -24 25 -24h395q31 0 48.5 -16.5t17.5 -47.5v-74q0 -30 -17.5 -46.5t-48.5 -16.5h-580q-65 0 -65 63z" />
<glyph unicode="M" horiz-adv-x="1261" d="M82 63v1237q0 31 17 48.5t48 17.5h93q42 0 61 -35l332 -631l325 627q20 39 62 39h94q31 0 48.5 -17.5t17.5 -48.5v-1237q0 -30 -17.5 -46.5t-48.5 -16.5h-94q-31 0 -48.5 16.5t-17.5 46.5v807l-229 -442q-15 -31 -29.5 -44t-40.5 -13h-45q-27 0 -42 12t-29 41l-234 444 v-805q0 -63 -65 -63h-93q-65 0 -65 63z" />
<glyph unicode="N" horiz-adv-x="1040" d="M82 63v1237q0 31 17 48.5t48 17.5h93q43 0 63 -39l432 -817v790q0 31 17.5 48.5t48.5 17.5h92q31 0 48 -17.5t17 -48.5v-1237q0 -63 -65 -63h-92q-45 0 -64 37l-432 817v-791q0 -63 -65 -63h-93q-65 0 -65 63z" />
<glyph unicode="O" horiz-adv-x="970" d="M61 397v572q0 136 58 234.5t152.5 146t213.5 47.5t213.5 -47.5t152.5 -146t58 -234.5v-572q0 -136 -58 -234.5t-152.5 -146t-213.5 -47.5t-213.5 47.5t-152.5 146t-58 234.5zM287 397q0 -114 53.5 -170.5t144.5 -56.5t145 56.5t54 170.5v572q0 114 -54 170.5t-145 56.5 t-144.5 -56.5t-53.5 -170.5v-572z" />
<glyph unicode="P" horiz-adv-x="950" d="M82 63v1237q0 31 17 48.5t48 17.5h314q89 0 168.5 -25.5t142.5 -74.5t100 -128.5t37 -179.5t-37 -179.5t-100 -128t-142.5 -74t-168.5 -25.5h-129q-25 0 -25 -25v-463q0 -63 -65 -63h-95q-65 0 -65 63zM307 776q0 -24 25 -24h129q96 0 159.5 50.5t63.5 155.5 q0 106 -63.5 156.5t-159.5 50.5h-129q-25 0 -25 -24v-365z" />
<glyph unicode="Q" horiz-adv-x="970" d="M61 397v572q0 136 58 234.5t152.5 146t213.5 47.5t213.5 -47.5t152.5 -146t58 -234.5v-572q0 -168 -85.5 -275.5t-225.5 -139.5v-123q0 -31 -17.5 -47.5t-48.5 -16.5h-94q-31 0 -48 16.5t-17 47.5v123q-141 32 -226.5 139t-85.5 276zM287 397q0 -114 53.5 -170.5 t144.5 -56.5t145 56.5t54 170.5v572q0 114 -54 170.5t-145 56.5t-144.5 -56.5t-53.5 -170.5v-572z" />
<glyph unicode="R" horiz-adv-x="964" d="M82 63v1237q0 31 17 48.5t48 17.5h314q89 0 168.5 -25.5t142.5 -74.5t100 -128.5t37 -179.5q0 -121 -52 -209t-142 -137l235 -555q9 -22 -2 -39.5t-35 -17.5h-118q-59 0 -82 61l-185 451q-8 21 -19.5 30t-35.5 9h-141q-25 0 -25 -25v-463q0 -63 -65 -63h-95q-65 0 -65 63 zM307 776q0 -24 25 -24h129q96 0 159.5 50.5t63.5 155.5q0 106 -63.5 156.5t-159.5 50.5h-129q-25 0 -25 -24v-365z" />
<glyph unicode="S" horiz-adv-x="868" d="M20 145v56q0 24 14.5 39.5t39.5 15.5q19 0 59.5 -21.5t105 -43t142.5 -21.5q112 0 166.5 56t54.5 143q0 48 -19 88t-50.5 68.5t-73 54t-87.5 49t-91.5 49t-87 59t-73 73.5t-50.5 97.5t-19 126.5q0 162 110.5 262.5t295.5 100.5q126 0 224.5 -48.5t98.5 -109.5v-47 q0 -27 -14.5 -44.5t-38.5 -17.5q-16 0 -54.5 16.5t-95 33t-116.5 16.5q-91 0 -140 -46t-49 -116q0 -50 30.5 -91t79.5 -72t108.5 -62t118.5 -70t108 -86t79.5 -120t30.5 -164q0 -182 -118 -291t-314 -109q-92 0 -178.5 23.5t-141.5 64.5t-55 88z" />
<glyph unicode="T" horiz-adv-x="819" d="M0 1229v74q0 30 17.5 46.5t48.5 16.5h688q65 0 65 -63v-74q0 -31 -17 -47.5t-48 -16.5h-207q-25 0 -25 -24v-1075q0 -31 -17 -48.5t-48 -17.5h-95q-31 0 -48 17.5t-17 48.5v1075q0 24 -25 24h-206q-31 0 -48.5 16.5t-17.5 47.5z" />
<glyph unicode="U" horiz-adv-x="1003" d="M78 397v903q0 31 17 48.5t48 17.5h95q31 0 48 -17.5t17 -48.5v-903q0 -114 54 -170.5t145 -56.5t144.5 56.5t53.5 170.5v903q0 31 17.5 48.5t48.5 17.5h94q31 0 48.5 -17.5t17.5 -48.5v-903q0 -136 -58 -234.5t-152.5 -146t-213.5 -47.5t-213.5 47.5t-152.5 146 t-58 234.5z" />
<glyph unicode="V" horiz-adv-x="954" d="M-4 1286q-10 39 3.5 59.5t45.5 20.5h107q60 0 77 -66l248 -972l254 972q17 66 78 66h100q32 0 45.5 -20.5t3.5 -59.5l-327 -1223q-16 -63 -78 -63h-156q-62 0 -78 63z" />
<glyph unicode="W" horiz-adv-x="1488" d="M4 1300q-8 29 6 47.5t45 18.5h111q30 0 51 -18t29 -48l217 -874l166 639l-62 235q-8 29 6 47.5t45 18.5h101q30 0 51 -18t29 -48l229 -870l221 870q8 30 29 48t51 18h105q31 0 45 -18.5t6 -47.5l-328 -1237q-8 -30 -29 -46.5t-51 -16.5h-102q-30 0 -51 16.5t-29 46.5 l-152 572l-149 -572q-8 -30 -29 -46.5t-51 -16.5h-108q-30 0 -51 16.5t-29 46.5z" />
<glyph unicode="X" horiz-adv-x="993" d="M-4.5 18.5q-12.5 18.5 2.5 44.5l369 644l-338 593q-15 26 -3.5 46t42.5 20h131q53 0 92 -66l207 -364l209 364q39 66 92 66h127q31 0 42.5 -20t-3.5 -46l-338 -589l368 -648q15 -26 2.5 -44.5t-43.5 -18.5h-131q-54 0 -90 63l-237 418l-240 -418q-37 -63 -90 -63h-127 q-31 0 -43.5 18.5z" />
<glyph unicode="Y" horiz-adv-x="899" d="M-15.5 1344.5q9.5 21.5 38.5 21.5h122q55 0 84 -59l222 -484l225 484q15 30 33.5 44.5t50.5 14.5h117q29 0 38 -21.5t-2 -41.5l-338 -697q-14 -28 -14 -78v-465q0 -63 -65 -63h-95q-65 0 -65 63v465q0 42 -17 76l-333 699q-11 20 -1.5 41.5z" />
<glyph unicode="Z" horiz-adv-x="847" d="M20 63v58q0 37 21 80l500 964h-428q-31 0 -48.5 16.5t-17.5 47.5v74q0 30 17.5 46.5t48.5 16.5h628q31 0 48.5 -16.5t17.5 -46.5v-58q0 -37 -21 -80l-499 -964h475q31 0 48 -16.5t17 -47.5v-74q0 -63 -65 -63h-676q-31 0 -48.5 16.5t-17.5 46.5z" />
<glyph unicode="[" horiz-adv-x="481" d="M102 -158v1688q0 29 16.5 45t45.5 16h287q61 0 61 -61v-62q0 -61 -61 -61h-140v-1442h140q61 0 61 -61v-62q0 -61 -61 -61h-287q-29 0 -45.5 16t-16.5 45z" />
<glyph unicode="\" horiz-adv-x="708" d="M16 1380q-10 32 5 50t49 18h57q64 0 86 -68l479 -1394q10 -32 -4.5 -50t-48.5 -18h-57q-64 0 -86 68z" />
<glyph unicode="]" horiz-adv-x="481" d="M-31 -96q0 29 16.5 45t45.5 16h139v1442h-139q-29 0 -45.5 16t-16.5 45v62q0 29 16.5 45t45.5 16h286q29 0 45.5 -16t16.5 -45v-1688q0 -29 -16.5 -45t-45.5 -16h-286q-29 0 -45.5 16t-16.5 45v62z" />
<glyph unicode="^" horiz-adv-x="1007" d="M55.5 813.5q-10.5 18.5 3.5 38.5l287 403q36 50 86 50h143q51 0 87 -50l286 -403q14 -20 3.5 -38.5t-36.5 -18.5h-65q-51 0 -74 30l-272 318l-273 -318q-23 -30 -73 -30h-66q-26 0 -36.5 18.5z" />
<glyph unicode="_" horiz-adv-x="753" d="M-51 -162q0 58 59 58h737q60 0 60 -58v-47q0 -57 -60 -57h-737q-59 0 -59 57v47z" />
<glyph unicode="`" horiz-adv-x="389" d="M53.5 1431q7.5 19 34.5 19h109q29 0 46 -10t27 -37l64 -186q7 -21 -3.5 -36.5t-31.5 -15.5h-29q-45 0 -67 31l-142 197q-15 19 -7.5 38z" />
<glyph unicode="a" d="M41 322q0 205 134.5 318.5t356.5 113.5q-9 147 -170 147q-57 0 -110 -12t-64 -12q-19 0 -33 12.5t-14 38.5v51q0 40 63.5 69t182.5 29q165 0 264 -84.5t99 -257.5v-672q0 -63 -62 -63h-84q-29 0 -43 16.5t-14 40.5q-26 -28 -74.5 -52.5t-118.5 -24.5q-141 0 -227 89 t-86 253zM258 338q0 -82 36 -126t101 -44q61 0 99 44t38 126v248q-123 0 -198.5 -64t-75.5 -184z" />
<glyph unicode="b" horiz-adv-x="841" d="M72 61v1244q0 61 61 61h94q29 0 45.5 -16t16.5 -45v-299q74 71 186 71q143 0 224 -92t81 -262v-389q0 -170 -81 -262t-224 -92q-115 0 -186 71q-6 -51 -62 -51h-94q-61 0 -61 61zM289 338q0 -86 39.5 -127t97.5 -41q60 0 98.5 41t38.5 123v389q0 82 -38.5 123t-98.5 41 q-58 0 -97.5 -41t-39.5 -127v-381z" />
<glyph unicode="c" horiz-adv-x="649" d="M61 319v418q0 172 91.5 256t248.5 84q86 0 157 -29t71 -77v-56q0 -23 -14.5 -38t-36.5 -15q-14 0 -61.5 12.5t-90.5 12.5q-147 0 -147 -168v-381q0 -168 147 -168q43 0 90.5 12.5t61.5 12.5q22 0 36.5 -15.5t14.5 -38.5v-55q0 -48 -71 -77t-157 -29q-157 0 -248.5 83.5 t-91.5 255.5z" />
<glyph unicode="d" horiz-adv-x="841" d="M61 334v389q0 170 81.5 262t224.5 92q112 0 186 -71v299q0 61 61 61h95q61 0 61 -61v-1244q0 -61 -61 -61h-95q-55 0 -61 51q-71 -71 -186 -71q-143 0 -224.5 92t-81.5 262zM279 334q0 -82 38.5 -123t98.5 -41q58 0 97.5 41t39.5 127v381q0 86 -39.5 127t-97.5 41 q-60 0 -98.5 -41t-38.5 -123v-389z" />
<glyph unicode="e" horiz-adv-x="825" d="M61 360v363q0 171 95.5 262.5t259.5 91.5q163 0 258.5 -91.5t95.5 -262.5v-201q0 -61 -61 -61h-430v-103q0 -99 54 -143.5t144 -44.5q54 0 108.5 17.5t71.5 17.5q25 0 39.5 -14t14.5 -37v-48q0 -53 -69 -89.5t-189 -36.5q-184 0 -288 100.5t-104 279.5zM279 645h274v78 q0 82 -38.5 123t-98.5 41t-98.5 -41t-38.5 -123v-78z" />
<glyph unicode="f" horiz-adv-x="456" d="M-20 926v69q0 29 16 45.5t45 16.5h37v82q0 119 66.5 183t172.5 64q59 0 99.5 -23t40.5 -65v-53q0 -53 -51 -53q-6 0 -19 1t-22 1q-70 0 -70 -78v-59h100q29 0 45.5 -16.5t16.5 -45.5v-69q0 -29 -16.5 -45.5t-45.5 -16.5h-100v-803q0 -29 -16.5 -45t-45.5 -16h-94 q-61 0 -61 61v803h-37q-29 0 -45 16.5t-16 45.5z" />
<glyph unicode="g" horiz-adv-x="841" d="M61 436v287q0 170 81.5 262t224.5 92q112 0 186 -71q7 51 61 51h95q29 0 45 -16.5t16 -45.5v-934q0 -91 -33 -157.5t-88.5 -102t-116.5 -51.5t-129 -16q-108 0 -184 30t-76 78v47q0 27 16.5 43.5t39.5 16.5q11 0 70 -17.5t120 -17.5q83 0 123.5 39t40.5 108v93 q-72 -72 -186 -72q-143 0 -224.5 92t-81.5 262zM279 436q0 -82 38.5 -123t98.5 -41q58 0 97.5 41t39.5 127v279q0 86 -39.5 127t-97.5 41q-60 0 -98.5 -41t-38.5 -123v-287z" />
<glyph unicode="h" horiz-adv-x="847" d="M72 61v1244q0 61 61 61h94q29 0 45.5 -16t16.5 -45v-299q74 71 186 71q143 0 224 -92t81 -262v-662q0 -61 -61 -61h-94q-29 0 -45.5 16t-16.5 45v662q0 82 -38.5 123t-98.5 41q-58 0 -97.5 -41t-39.5 -127v-658q0 -29 -16.5 -45t-45.5 -16h-94q-61 0 -61 61z" />
<glyph unicode="i" horiz-adv-x="360" d="M68 1227v78q0 61 61 61h102q29 0 45.5 -16t16.5 -45v-78q0 -29 -16.5 -45.5t-45.5 -16.5h-102q-29 0 -45 16.5t-16 45.5zM72 61v934q0 29 16 45.5t45 16.5h94q29 0 45.5 -16.5t16.5 -45.5v-934q0 -29 -16.5 -45t-45.5 -16h-94q-61 0 -61 61z" />
<glyph unicode="j" horiz-adv-x="360" d="M-90 -125q0 53 51 53q7 0 19 -1t22 -1q70 0 70 78v991q0 29 16 45.5t45 16.5h94q29 0 45.5 -16.5t16.5 -45.5v-1013q0 -119 -67 -183.5t-173 -64.5q-59 0 -99 23t-40 65v53zM68 1227v78q0 61 61 61h102q29 0 45.5 -16t16.5 -45v-78q0 -29 -16.5 -45.5t-45.5 -16.5h-102 q-29 0 -45 16.5t-16 45.5z" />
<glyph unicode="k" horiz-adv-x="808" d="M72 61v1244q0 61 61 61h94q29 0 45.5 -16t16.5 -45v-656l246 346q14 20 25.5 31t33 21t49.5 10h100q29 0 40.5 -22.5t-5.5 -45.5l-276 -387l309 -528q14 -25 3 -49.5t-40 -24.5h-88q-75 0 -108 61l-207 359l-82 -115v-244q0 -29 -16.5 -45t-45.5 -16h-94q-61 0 -61 61z " />
<glyph unicode="l" horiz-adv-x="360" d="M72 61v1244q0 61 61 61h94q29 0 45.5 -16t16.5 -45v-1244q0 -29 -16.5 -45t-45.5 -16h-94q-61 0 -61 61z" />
<glyph unicode="m" horiz-adv-x="1339" d="M72 61v934q0 29 16 45.5t45 16.5h94q55 0 62 -51q74 71 186 71q176 0 254 -135q81 135 238 135q143 0 224 -92t81 -262v-662q0 -29 -16.5 -45t-45.5 -16h-94q-61 0 -61 61v662q0 82 -38.5 123t-98.5 41t-99 -41t-39 -123v-662q0 -61 -61 -61h-94q-29 0 -45.5 16t-16.5 45 v662q0 82 -38.5 123t-98.5 41q-58 0 -97.5 -41t-39.5 -127v-658q0 -29 -16.5 -45t-45.5 -16h-94q-61 0 -61 61z" />
<glyph unicode="n" horiz-adv-x="847" d="M72 61v934q0 29 16 45.5t45 16.5h94q53 0 62 -51q74 71 186 71q143 0 224 -92t81 -262v-662q0 -61 -61 -61h-94q-29 0 -45.5 16t-16.5 45v662q0 82 -38.5 123t-98.5 41q-58 0 -97.5 -41t-39.5 -127v-658q0 -29 -16.5 -45t-45.5 -16h-94q-61 0 -61 61z" />
<glyph unicode="o" horiz-adv-x="831" d="M61 334v389q0 171 95.5 262.5t259.5 91.5q163 0 258.5 -91.5t95.5 -262.5v-389q0 -171 -95.5 -262.5t-258.5 -91.5q-164 0 -259.5 91.5t-95.5 262.5zM279 334q0 -82 38.5 -123t98.5 -41t98.5 41t38.5 123v389q0 82 -38.5 123t-98.5 41t-98.5 -41t-38.5 -123v-389z" />
<glyph unicode="p" horiz-adv-x="841" d="M72 -184v1179q0 29 16 45.5t45 16.5h94q56 0 62 -51q71 71 186 71q143 0 224 -92t81 -262v-389q0 -170 -81 -262t-224 -92q-112 0 -186 71v-235q0 -29 -16.5 -45.5t-45.5 -16.5h-94q-29 0 -45 16.5t-16 45.5zM289 338q0 -86 39.5 -127t97.5 -41q60 0 98.5 41t38.5 123 v389q0 82 -38.5 123t-98.5 41q-58 0 -97.5 -41t-39.5 -127v-381z" />
<glyph unicode="q" horiz-adv-x="841" d="M61 334v389q0 170 81.5 262t224.5 92q115 0 186 -71q6 51 61 51h95q29 0 45 -16.5t16 -45.5v-1179q0 -29 -16 -45.5t-45 -16.5h-95q-29 0 -45 16.5t-16 45.5v235q-74 -71 -186 -71q-143 0 -224.5 92t-81.5 262zM279 334q0 -82 38.5 -123t98.5 -41q58 0 97.5 41t39.5 127 v381q0 86 -39.5 127t-97.5 41q-60 0 -98.5 -41t-38.5 -123v-389z" />
<glyph unicode="r" horiz-adv-x="522" d="M72 61v934q0 29 16 45.5t45 16.5h94q29 0 45.5 -16.5t16.5 -45.5v-26q1 4 7.5 14t23 26.5t37.5 31t54.5 25.5t71.5 11q49 0 49 -47v-88q0 -33 -18 -48.5t-63 -16.5q-73 -3 -117.5 -50t-44.5 -133v-633q0 -29 -16.5 -45t-45.5 -16h-94q-61 0 -61 61z" />
<glyph unicode="s" horiz-adv-x="729" d="M43 106v68q0 28 16 41.5t37 13.5q15 0 47 -14.5t78 -28.5t94 -14q67 0 111.5 30t44.5 97q0 40 -23 72.5t-60 55t-82 45t-90 49.5t-82 60.5t-60 86.5t-23 120q0 129 86.5 209t235.5 80q98 0 176 -36.5t78 -79.5v-70q0 -23 -12.5 -37t-34.5 -14q-8 0 -73 22.5t-122 22.5 q-58 0 -90.5 -25t-32.5 -72q0 -32 23 -58.5t60 -47.5t82 -43.5t90 -52t82 -66t60 -92.5t23 -125q0 -158 -99.5 -240.5t-258.5 -82.5q-114 0 -197.5 37.5t-83.5 88.5z" />
<glyph unicode="t" horiz-adv-x="456" d="M-20 926v69q0 29 16 45.5t45 16.5h37v188q0 61 55 76l94 25q28 8 48 -8t20 -48v-233h100q29 0 45.5 -16.5t16.5 -45.5v-69q0 -29 -16.5 -45.5t-45.5 -16.5h-100v-614q0 -78 70 -78q9 0 22 1t19 1q51 0 51 -53v-53q0 -42 -40.5 -65t-99.5 -23q-106 0 -172.5 64t-66.5 183 v637h-37q-29 0 -45 16.5t-16 45.5z" />
<glyph unicode="u" horiz-adv-x="847" d="M68 334v661q0 29 16 45.5t45 16.5h94q29 0 45.5 -16.5t16.5 -45.5v-661q0 -82 38.5 -123t98.5 -41t98.5 41t38.5 123v661q0 29 16.5 45.5t45.5 16.5h94q29 0 45 -16.5t16 -45.5v-934q0 -61 -61 -61h-94q-56 0 -62 51q-74 -71 -186 -71q-143 0 -224 92t-81 262z" />
<glyph unicode="v" d="M-6 991q-8 28 4 47t41 19h108q57 0 74 -62l189 -630l190 630q17 62 74 62h104q29 0 41 -19t4 -47l-286 -930q-20 -61 -78 -61h-105q-58 0 -78 61z" />
<glyph unicode="w" horiz-adv-x="1245" d="M4 991q-8 28 4 47t41 19h105q58 0 73 -62l152 -620l141 545l-18 71q-8 28 4 47t41 19h90q56 0 74 -66l157 -616l154 620q15 62 74 62h100q29 0 41 -19t4 -47l-246 -930q-8 -28 -28 -44.5t-49 -16.5h-101q-29 0 -49.5 16.5t-28.5 44.5l-118 461l-119 -461 q-8 -28 -28.5 -44.5t-49.5 -16.5h-100q-29 0 -49.5 16.5t-28.5 44.5z" />
<glyph unicode="x" horiz-adv-x="792" d="M-5.5 22.5q-9.5 22.5 7.5 51.5l277 477l-248 432q-17 29 -8 51.5t38 22.5h113q49 0 84 -58l139 -243l142 243q32 58 84 58h108q29 0 38.5 -22.5t-7.5 -51.5l-248 -428l277 -481q17 -29 7.5 -51.5t-38.5 -22.5h-113q-53 0 -84 57l-168 293l-170 -293q-31 -57 -84 -57h-108 q-29 0 -38.5 22.5z" />
<glyph unicode="y" horiz-adv-x="813" d="M-4 989q-10 32 1.5 50t41.5 18h115q53 0 73 -62l179 -565l188 565q20 62 76 62h98q31 0 45.5 -18t3.5 -52l-389 -1171q-9 -28 -31 -45t-51 -17h-102q-28 0 -38.5 18.5t-2.5 43.5l92 280z" />
<glyph unicode="z" horiz-adv-x="733" d="M10 61v50q0 11 1.5 20t6.5 20.5t6.5 15.5t10.5 20t10 18l381 659h-324q-29 0 -45 16.5t-16 45.5v69q0 29 16 45.5t45 16.5h533q29 0 45 -16.5t16 -45.5v-49q0 -8 -1 -15t-3 -14.5t-3.5 -12.5t-5.5 -13.5t-6 -12t-7.5 -13.5t-7.5 -13l-381 -659h370q29 0 45.5 -16.5 t16.5 -45.5v-70q0 -29 -16.5 -45t-45.5 -16h-579q-29 0 -45.5 16t-16.5 45z" />
<glyph unicode="{" horiz-adv-x="522" d="M20 629v114q0 46 41 54q53 10 86 64.5t33 154.5q0 49 -10 143.5t-10 138.5q0 136 87 214.5t255 78.5q51 0 51 -43v-73q0 -43 -51 -43q-71 0 -106.5 -39t-35.5 -105q0 -38 13.5 -145t13.5 -148q0 -54 -11 -100t-28 -77t-38 -55.5t-42.5 -38.5t-38.5 -23t-28 -12l-11 -3 q8 -2 21.5 -6.5t47.5 -26.5t59.5 -53t47 -90t21.5 -133q0 -41 -13.5 -148t-13.5 -145q0 -66 35.5 -104.5t106.5 -38.5q51 0 51 -43v-74q0 -43 -59 -43q-166 0 -250 80t-84 217q0 44 12 147t12 152q0 176 -123 198q-41 8 -41 54z" />
<glyph unicode="|" horiz-adv-x="401" d="M102 -84v1534q0 59 58 59h82q57 0 57 -59v-1534q0 -59 -57 -59h-82q-58 0 -58 59z" />
<glyph unicode="}" horiz-adv-x="522" d="M-31 -102q0 43 51 43q71 0 106.5 38.5t35.5 104.5q0 38 -13.5 145t-13.5 148q0 54 11 100t28 77t38 55.5t42.5 38.5t38.5 23t28 12l11 3q-8 2 -21.5 6.5t-47.5 26.5t-59.5 53t-47 90t-21.5 133q0 41 13.5 148t13.5 145q0 66 -35.5 105t-106.5 39q-51 0 -51 43v73 q0 43 51 43q168 0 255 -78.5t87 -214.5q0 -44 -10 -138.5t-10 -143.5q0 -100 33 -154.5t86 -64.5q41 -8 41 -54v-114q0 -46 -41 -54q-123 -22 -123 -198q0 -49 12 -152t12 -147q0 -137 -83.5 -217t-249.5 -80q-60 0 -60 43v74z" />
<glyph unicode="~" horiz-adv-x="894" d="M51 692q0 102 60 174t163 72q59 0 126 -30t123.5 -59.5t90.5 -29.5q39 0 60.5 25t21.5 74q0 28 45 28h54q49 0 49 -59q0 -102 -60 -174t-161 -72q-48 0 -100.5 18.5t-90.5 41t-79.5 41t-69.5 18.5q-39 0 -61.5 -25t-22.5 -73q0 -29 -45 -29h-54q-49 0 -49 59z" />
<glyph unicode="&#xa1;" horiz-adv-x="385" d="M74 -248l30 854q3 62 62 62h53q59 0 62 -62l30 -854q1 -29 -14.5 -45t-44.5 -16h-119q-29 0 -44.5 16t-14.5 45zM82 893v102q0 29 15.5 45.5t45.5 16.5h99q30 0 45.5 -16.5t15.5 -45.5v-102q0 -29 -15.5 -45.5t-45.5 -16.5h-99q-30 0 -45.5 16.5t-15.5 45.5z" />
<glyph unicode="&#xa2;" horiz-adv-x="649" d="M61 750v276q0 135 58.5 216t163.5 110v102q0 59 57 59h53q58 0 58 -59v-90q73 -8 125.5 -36t52.5 -68v-56q0 -23 -14.5 -38t-36.5 -15q-14 0 -61.5 12.5t-90.5 12.5q-147 0 -147 -168v-240q0 -168 147 -168q43 0 90.5 12.5t61.5 12.5q22 0 36.5 -15.5t14.5 -38.5v-55 q0 -40 -52.5 -68t-125.5 -36v-90q0 -60 -58 -60h-53q-57 0 -57 60v102q-105 27 -163.5 109t-58.5 217z" />
<glyph unicode="&#xa3;" horiz-adv-x="862" d="M-10 526v56q0 53 55 53h86v98h-86q-24 0 -39.5 14t-15.5 37v56q0 53 55 53h86v76q0 112 32.5 196t91.5 134t135 74t169 24q119 0 195.5 -41.5t76.5 -93.5v-41q0 -29 -15.5 -42.5t-39.5 -13.5q-14 0 -77 19.5t-117 19.5q-120 0 -177 -58.5t-57 -176.5v-76h230q55 0 55 -53 v-56q0 -23 -15.5 -37t-39.5 -14h-230v-98h230q55 0 55 -53v-56q0 -23 -15.5 -37t-39.5 -14h-230v-258q0 -24 25 -24h403q31 0 48.5 -16.5t17.5 -47.5v-66q0 -30 -17.5 -46.5t-48.5 -16.5h-579q-31 0 -48.5 16.5t-17.5 46.5v412h-86q-24 0 -39.5 14t-15.5 37z" />
<glyph unicode="&#xa4;" horiz-adv-x="960" d="M94 367l119 116q-66 87 -66 199q0 115 66 199l-119 118l70 70l117 -121q90 68 198 68q112 0 199 -68l119 121l69 -70l-118 -118q65 -87 65 -199q0 -109 -65 -199l118 -116l-69 -70l-119 117q-86 -64 -199 -64q-109 0 -198 64l-117 -117zM242 682q0 -98 69.5 -168 t167.5 -70q100 0 170 70t70 168q0 100 -70 170t-170 70q-98 0 -167.5 -70t-69.5 -170z" />
<glyph unicode="&#xa5;" horiz-adv-x="911" d="M14.5 1344.5q9.5 21.5 38.5 21.5h107q58 0 84 -59l213 -494l217 494q26 59 84 59h100q29 0 38.5 -21.5t-1.5 -41.5l-186 -410h110q55 0 55 -53v-56q0 -23 -15.5 -37t-39.5 -14h-184l-45 -98h229q55 0 55 -53v-56q0 -23 -15.5 -37t-39.5 -14h-256v-412q0 -63 -65 -63h-86 q-31 0 -48.5 16.5t-17.5 46.5v412h-256q-24 0 -39.5 14t-15.5 37v56q0 53 55 53h227l-47 98h-180q-24 0 -39.5 14t-15.5 37v56q0 53 55 53h109l-183 410q-11 20 -1.5 41.5z" />
<glyph unicode="&#xa6;" horiz-adv-x="401" d="M102 -84v653q0 60 58 60h82q57 0 57 -60v-653q0 -59 -57 -59h-82q-58 0 -58 59zM102 797v653q0 59 58 59h82q57 0 57 -59v-653q0 -60 -57 -60h-82q-58 0 -58 60z" />
<glyph unicode="&#xa7;" horiz-adv-x="747" d="M51 651q0 48 13 89t32 66t37.5 43t31.5 25l13 7q-5 3 -13 9t-28 26.5t-35.5 45t-28 64t-12.5 82.5q0 127 91 207t229 80q108 0 178 -34t70 -75v-61q0 -23 -14 -37t-37 -14q-13 0 -73.5 17t-107.5 17q-61 0 -89.5 -26.5t-28.5 -69.5q0 -30 23 -58t60 -52.5t81.5 -51 t88.5 -59t81 -70.5t60 -92t23 -117q0 -45 -11.5 -85.5t-28 -66t-33 -44.5t-27.5 -27l-12 -8q4 -3 11 -9.5t24.5 -28.5t31 -46.5t24.5 -63t11 -79.5q0 -148 -100.5 -234t-255.5 -86q-65 0 -126.5 14t-105 44t-43.5 69v53q0 28 16.5 42t37.5 14q19 0 49 -13t73.5 -26t94.5 -13 q66 0 106.5 34t40.5 102q0 37 -23.5 68.5t-60.5 56t-82 49.5t-90 54.5t-82 65t-60.5 87.5t-23.5 116zM256 655q0 -41 30.5 -70.5t123.5 -82.5q3 1 8.5 2.5t20 9.5t25 18.5t19.5 30.5t9 45q0 42 -31 71.5t-123 82.5q-3 -1 -8.5 -2.5t-20 -9.5t-25 -19t-19.5 -31t-9 -45z" />
<glyph unicode="&#xa8;" horiz-adv-x="579" d="M51 1223v67q0 58 55 58h72q55 0 55 -58v-67q0 -58 -55 -58h-72q-55 0 -55 58zM346 1223v67q0 58 55 58h72q55 0 55 -58v-67q0 -58 -55 -58h-72q-55 0 -55 58z" />
<glyph unicode="&#xa9;" horiz-adv-x="1593" d="M82 682q0 146 56.5 278t152.5 228t228 152.5t278 56.5t278 -56.5t227.5 -152.5t152 -228t56.5 -278t-56.5 -278t-152 -228t-227.5 -152.5t-278 -56.5t-278 56.5t-228 152.5t-152.5 228t-56.5 278zM180 682q0 -125 49 -239t131.5 -196.5t197 -131.5t239.5 -49 q167 0 309 82.5t224.5 224.5t82.5 309t-82.5 309t-224.5 224.5t-309 82.5q-125 0 -239.5 -49t-197 -131.5t-131.5 -196.5t-49 -239zM553 496v344q0 125 78.5 192.5t195.5 67.5q84 0 131.5 -22.5t47.5 -55.5v-31q0 -20 -10.5 -31.5t-28.5 -11.5q-17 0 -35 6q-65 17 -92 17 q-70 0 -107 -38t-37 -106v-319q0 -68 37 -105.5t107 -37.5q31 0 92 16q18 6 35 6q39 0 39 -41v-31q0 -34 -47.5 -56.5t-131.5 -22.5q-117 0 -195.5 67.5t-78.5 192.5z" />
<glyph unicode="&#xaa;" horiz-adv-x="522" d="M31 930q0 123 81 192.5t214 71.5q-6 80 -99 80q-31 0 -64 -7t-40 -7q-13 0 -23 8.5t-10 25.5v31q0 25 40 44.5t112 19.5q101 0 162 -52.5t61 -158.5v-402q0 -43 -41 -43h-55q-14 0 -22.5 7.5t-10.5 14.5l-2 7q-4 -5 -11.5 -11.5t-36 -18t-63.5 -11.5q-83 0 -137.5 55 t-54.5 154zM170 940q0 -47 20.5 -72.5t57.5 -25.5q35 0 56.5 25t21.5 73v145q-70 0 -113 -37t-43 -108z" />
<glyph unicode="&#xab;" horiz-adv-x="864" d="M41 381q0 29 18 61l181 289q19 31 51 31h106q21 0 28.5 -14.5t-3.5 -36.5l-186 -330l186 -330q11 -22 3.5 -36.5t-28.5 -14.5h-106q-32 0 -51 31l-181 288q-18 32 -18 62zM414 381q0 29 18 61l180 289q19 31 52 31h106q21 0 28.5 -14.5t-3.5 -36.5l-187 -330l187 -330 q11 -22 3.5 -36.5t-28.5 -14.5h-106q-33 0 -52 31l-180 288q-18 32 -18 62z" />
<glyph unicode="&#xac;" horiz-adv-x="1112" d="M94 633v102h924v-510h-100v408h-824z" />
<glyph unicode="&#xad;" horiz-adv-x="573" d="M51 569v64q0 29 16.5 45t45.5 16h348q61 0 61 -61v-64q0 -61 -61 -61h-348q-29 0 -45.5 16t-16.5 45z" />
<glyph unicode="&#xae;" horiz-adv-x="1269" d="M61 823q0 156 77 288t209 209t288 77t288 -77t208.5 -209t76.5 -288q0 -117 -45.5 -223t-122 -182.5t-182.5 -122t-223 -45.5q-156 0 -288 76.5t-209 208.5t-77 288zM160 823q0 -97 37.5 -184.5t101.5 -151.5t151.5 -101.5t184.5 -37.5t184.5 37.5t151.5 101.5 t101.5 151.5t37.5 184.5t-37.5 184.5t-101.5 151.5t-151.5 101.5t-184.5 37.5t-184.5 -37.5t-151.5 -101.5t-101.5 -151.5t-37.5 -184.5zM455 541v557q0 35 34 35h142q88 0 148.5 -49.5t60.5 -139.5q0 -108 -86 -160l104 -243q6 -13 -1 -24t-21 -11h-56q-31 0 -43 31 l-82 202q-6 15 -18 15h-64q-6 0 -6 -6v-207q0 -35 -35 -35h-43q-34 0 -34 35zM567 862q0 -6 6 -6h58q39 0 66.5 22t27.5 66t-27 65t-67 21h-58q-6 0 -6 -6v-162z" />
<glyph unicode="&#xaf;" horiz-adv-x="604" d="M51 1223v34q0 58 55 58h392q55 0 55 -58v-34q0 -58 -55 -58h-392q-55 0 -55 58z" />
<glyph unicode="&#xb0;" horiz-adv-x="614" d="M41 1124q0 110 78 188.5t188 78.5t188 -78.5t78 -188.5t-78 -188t-188 -78t-188 78t-78 188zM180 1124q0 -52 37 -89.5t90 -37.5t90 37.5t37 89.5t-37 89.5t-90 37.5t-90 -37.5t-37 -89.5z" />
<glyph unicode="&#xb1;" horiz-adv-x="692" d="M51 55v56q0 55 60 55h471q59 0 59 -55v-56q0 -55 -59 -55h-471q-60 0 -60 55zM51 520v55q0 56 60 56h149v151q0 60 55 60h60q55 0 55 -60v-151h152q59 0 59 -56v-55q0 -55 -59 -55h-152v-154q0 -59 -55 -59h-60q-55 0 -55 59v154h-149q-60 0 -60 55z" />
<glyph unicode="&#xb2;" horiz-adv-x="518" d="M20 586v86q0 48 13 93t30.5 76t47.5 65.5t51.5 53.5t56.5 48q40 33 59.5 51.5t38.5 48.5t19 59q0 42 -30.5 67.5t-90.5 25.5q-44 0 -84.5 -13.5t-50.5 -13.5q-16 0 -26.5 10t-10.5 29v35q0 36 53.5 56.5t120.5 20.5q117 0 188.5 -57t71.5 -160q0 -22 -5 -44t-11 -38 t-19 -35.5t-21.5 -30.5t-27.5 -29t-27.5 -25.5t-30.5 -26t-28 -23.5q-39 -33 -55.5 -49t-42.5 -47t-36.5 -64.5t-10.5 -74.5q0 -10 10 -10h254q41 0 41 -41v-43q0 -41 -41 -41h-365q-41 0 -41 41z" />
<glyph unicode="&#xb3;" horiz-adv-x="503" d="M0 612v29q0 39 39 39q8 0 46 -15.5t89 -15.5q72 0 110 39.5t38 102.5q0 55 -40.5 89.5t-105.5 34.5h-31q-43 0 -43 39v41q0 41 43 41h25q59 0 92 30.5t33 84.5q0 51 -34 80t-89 29q-32 0 -72 -15q-24 -8 -34 -8q-15 0 -25 10.5t-10 28.5v31q0 36 46.5 56.5t110.5 20.5 q106 0 175 -62t69 -165q0 -33 -9.5 -63.5t-23 -49.5t-27 -33.5t-22.5 -20.5l-10 -7q5 -2 13.5 -6.5t29.5 -21.5t37 -37.5t29.5 -56.5t13.5 -77q0 -106 -75.5 -182t-207.5 -76q-74 0 -127 25t-53 61z" />
<glyph unicode="&#xb4;" horiz-adv-x="389" d="M55 1217l64 186q10 27 27.5 37t46.5 10h108q27 0 34.5 -19t-7.5 -38l-142 -197q-22 -31 -67 -31h-29q-21 0 -31.5 15.5t-3.5 36.5z" />
<glyph unicode="&#xb5;" horiz-adv-x="1071" d="M94 -324v1221h119v-578q0 -116 56 -178.5t145 -62.5q75 0 128 45.5t76 112.5t23 147v514h119v-717q0 -49 22.5 -79.5t69.5 -30.5q24 0 47 8.5t34 17.5l11 8l33 -63q-2 -3 -6 -7t-17.5 -15t-28.5 -19.5t-39 -15.5t-50 -7q-69 0 -115.5 38.5t-61.5 101.5 q-93 -133 -241 -133q-136 0 -205 79v-387h-119z" />
<glyph unicode="&#xb6;" horiz-adv-x="1028" d="M51 940q0 108 36.5 192.5t97.5 134t132.5 74.5t149.5 25h481q36 0 53 -14.5t17 -48.5v-29q0 -33 -17 -47.5t-53 -14.5h-47q-33 0 -33 -34v-1356q0 -35 -14.5 -51.5t-48.5 -16.5h-23q-33 0 -47 16.5t-14 51.5v1356q0 34 -33 34h-45q-33 0 -33 -34v-1356q0 -35 -14.5 -51.5 t-48.5 -16.5h-23q-33 0 -47 16.5t-14 51.5v663q0 31 -27 31q-76 6 -144.5 36t-122.5 81.5t-86 131t-32 175.5zM205 940q0 -116 58 -188.5t165 -81.5q29 0 29 24v492q0 24 -29 24q-107 -9 -165 -81.5t-58 -188.5z" />
<glyph unicode="&#xb7;" horiz-adv-x="344" d="M61 627v102q0 28 16 45t46 17h98q30 0 46 -17t16 -45v-102q0 -28 -16 -45t-46 -17h-98q-30 0 -46 17t-16 45z" />
<glyph unicode="&#xb8;" horiz-adv-x="507" d="M53 -422l13 51q7 27 32 27q5 0 35.5 -5t52.5 -5q49 0 83 21t34 69q0 69 -123 69q-20 0 -29 12.5t1 35.5l88 170h114l-69 -134q7 0 18.5 -1.5t41 -11t52.5 -25.5t41.5 -50t18.5 -80q0 -94 -76.5 -149t-179.5 -55q-72 0 -114 17.5t-34 43.5z" />
<glyph unicode="&#xb9;" horiz-adv-x="280" d="M-10 1282v43q0 41 41 41h63q53 0 84 -30t31 -89v-661q0 -41 -41 -41h-59q-41 0 -41 41v643q0 12 -11 12h-26q-41 0 -41 41z" />
<glyph unicode="&#xba;" horiz-adv-x="536" d="M51 938v233q0 104 59 161t158 57t158 -57t59 -161v-233q0 -104 -59 -160.5t-158 -56.5t-158 56.5t-59 160.5zM190 938q0 -47 21.5 -70.5t56.5 -23.5t56.5 23.5t21.5 70.5v233q0 47 -22 71t-56 24t-56 -24t-22 -71v-233z" />
<glyph unicode="&#xbb;" horiz-adv-x="864" d="M65.5 14.5q-7.5 14.5 4.5 36.5l186 330l-186 330q-12 22 -4.5 36.5t28.5 14.5h107q32 0 51 -31l180 -289q19 -34 19 -61q0 -28 -19 -62l-180 -288q-19 -31 -51 -31h-107q-21 0 -28.5 14.5zM438.5 14.5q-7.5 14.5 3.5 36.5l187 330l-187 330q-11 22 -3.5 36.5t28.5 14.5 h106q33 0 52 -31l180 -289q18 -32 18 -61q0 -30 -18 -62l-180 -288q-19 -31 -52 -31h-106q-21 0 -28.5 14.5z" />
<glyph unicode="&#xbc;" horiz-adv-x="1128" d="M41 1282v43q0 41 41 41h63q53 0 84 -30t31 -89v-661q0 -41 -41 -41h-59q-41 0 -41 41v643q0 12 -10 12h-27q-41 0 -41 41zM149 15q-7 15 1 34l579 1268q22 49 66 49h51q20 0 27 -15t-1 -34l-579 -1268q-22 -49 -66 -49h-51q-20 0 -27 15zM545 184v25q0 28 8 47l238 524 q7 15 23 28t32 13h100q45 0 45 -41v-501q0 -11 10 -11h23q43 0 43 -41v-43q0 -41 -43 -41h-23q-10 0 -10 -10v-92q0 -41 -43 -41h-57q-41 0 -41 43v90q0 10 -10 10h-252q-43 0 -43 41zM705 279q-5 -11 4 -11h131q10 0 10 11v321z" />
<glyph unicode="&#xbd;" horiz-adv-x="1220" d="M41 1282v43q0 41 41 41h63q53 0 84 -30t31 -89v-661q0 -41 -41 -41h-59q-41 0 -41 41v643q0 12 -10 12h-27q-41 0 -41 41zM149 15q-7 15 1 34l579 1268q22 49 66 49h51q20 0 27 -15t-1 -34l-579 -1268q-22 -49 -66 -49h-51q-20 0 -27 15zM713 41v86q0 60 16.5 111 t50.5 94t60.5 69t70.5 62q39 33 59.5 52t39 49t18.5 59q0 42 -30.5 67t-90.5 25q-44 0 -84.5 -13.5t-50.5 -13.5q-16 0 -26.5 10t-10.5 29v35q0 36 54 57t120 21q117 0 188.5 -57t71.5 -160q0 -30 -9 -58.5t-17.5 -46.5t-32.5 -44.5t-33.5 -35.5t-41.5 -36t-36 -31 q-38 -33 -55.5 -49.5t-43 -47.5t-36 -64.5t-10.5 -74.5q0 -10 10 -10h254q41 0 41 -41v-43q0 -41 -41 -41h-364q-41 0 -41 41z" />
<glyph unicode="&#xbe;" horiz-adv-x="1300" d="M31 612v29q0 39 39 39q8 0 46 -15.5t89 -15.5q72 0 109.5 39.5t37.5 102.5q0 55 -40 89.5t-105 34.5h-31q-43 0 -43 39v41q0 41 43 41h25q59 0 92 30.5t33 84.5q0 51 -34 80t-89 29q-32 0 -72 -15q-24 -8 -35 -8q-15 0 -25 10.5t-10 28.5v31q0 36 46.5 56.5t111.5 20.5 q106 0 175 -62t69 -165q0 -33 -9.5 -63.5t-23 -49.5t-27 -33.5t-23.5 -20.5l-9 -7q5 -2 13.5 -6.5t29.5 -21.5t37 -37.5t29.5 -56.5t13.5 -77q0 -106 -75.5 -182t-207.5 -76q-74 0 -127 25t-53 61zM321 15q-7 15 1 34l579 1268q22 49 66 49h51q20 0 27 -15t-1 -34 l-579 -1268q-22 -49 -66 -49h-51q-20 0 -27 15zM717 184v25q0 28 8 47l238 524q7 15 23 28t32 13h100q45 0 45 -41v-501q0 -11 11 -11h22q43 0 43 -41v-43q0 -41 -43 -41h-22q-11 0 -11 -10v-92q0 -41 -43 -41h-57q-41 0 -41 43v90q0 10 -10 10h-252q-43 0 -43 41zM877 279 q-5 -11 4 -11h131q10 0 10 11v321z" />
<glyph unicode="&#xbf;" horiz-adv-x="759" d="M41 12q0 63 20 118.5t52.5 96t71.5 78t78.5 71.5t72 68.5t52.5 76.5t20 89q0 64 61 64h45q29 0 46.5 -16.5t17.5 -45.5q0 -67 -17.5 -125t-46 -99.5t-62.5 -77.5t-68 -68t-62.5 -63t-46 -69.5t-17.5 -80.5q0 -87 60.5 -129.5t154.5 -42.5q54 0 97 11.5t70 23.5t42 12 q57 0 57 -56v-47q0 -44 -46.5 -77.5t-109 -48.5t-124.5 -15q-194 0 -306 93.5t-112 258.5zM381 893v102q0 29 15.5 45.5t45.5 16.5h99q30 0 45.5 -16.5t15.5 -45.5v-102q0 -29 -15.5 -45.5t-45.5 -16.5h-99q-30 0 -45.5 16.5t-15.5 45.5z" />
<glyph unicode="&#xc0;" horiz-adv-x="956" d="M-4 80l328 1223q16 63 77 63h158q62 0 78 -63l324 -1223q10 -39 -4 -59.5t-46 -20.5h-106q-61 0 -78 66l-72 280q-6 21 -24 21h-309q-19 0 -25 -21l-74 -280q-17 -66 -78 -66h-100q-32 0 -45.5 20.5t-3.5 59.5zM250.5 1740q7.5 19 34.5 19h109q29 0 46 -10t27 -37 l64 -186q7 -21 -3.5 -36.5t-31.5 -15.5h-29q-45 0 -67 31l-142 197q-15 19 -7.5 38zM360 592q-7 -25 17 -25h198q24 0 17 25l-115 448z" />
<glyph unicode="&#xc1;" horiz-adv-x="956" d="M-4 80l328 1223q16 63 77 63h158q62 0 78 -63l324 -1223q10 -39 -4 -59.5t-46 -20.5h-106q-61 0 -78 66l-72 280q-6 21 -24 21h-309q-19 0 -25 -21l-74 -280q-17 -66 -78 -66h-100q-32 0 -45.5 20.5t-3.5 59.5zM360 592q-7 -25 17 -25h198q24 0 17 25l-115 448zM440 1526 l64 186q10 27 27.5 37t46.5 10h108q27 0 34.5 -19t-7.5 -38l-142 -197q-13 -18 -27.5 -24t-39.5 -6h-29q-21 0 -31.5 15t-3.5 36z" />
<glyph unicode="&#xc2;" horiz-adv-x="956" d="M-4 80l328 1223q16 63 77 63h158q62 0 78 -63l324 -1223q10 -39 -4 -59.5t-46 -20.5h-106q-61 0 -78 66l-72 280q-6 21 -24 21h-309q-19 0 -25 -21l-74 -280q-17 -66 -78 -66h-100q-32 0 -45.5 20.5t-3.5 59.5zM219 1526l107 186q27 47 80 47h143q53 0 80 -47l106 -186 q10 -20 -0.5 -36t-31.5 -16h-33q-46 0 -68 31l-125 143l-125 -143q-22 -31 -67 -31h-33q-21 0 -32 16t-1 36zM360 592q-7 -25 17 -25h198q24 0 17 25l-115 448z" />
<glyph unicode="&#xc3;" horiz-adv-x="956" d="M-4 80l328 1223q16 63 77 63h158q62 0 78 -63l324 -1223q10 -39 -4 -59.5t-46 -20.5h-106q-61 0 -78 66l-72 280q-6 21 -24 21h-309q-19 0 -25 -21l-74 -280q-17 -66 -78 -66h-100q-32 0 -45.5 20.5t-3.5 59.5zM211 1516q0 85 44.5 131.5t113.5 46.5q47 0 88.5 -20.5 t72 -41t50.5 -20.5q38 0 41 45q4 33 32 33h58q32 0 32 -41q0 -85 -44 -132t-113 -47q-47 0 -88.5 20.5t-72 41t-50.5 20.5q-38 0 -41 -45q-4 -32 -33 -32h-57q-33 0 -33 41zM360 592q-7 -25 17 -25h198q24 0 17 25l-115 448z" />
<glyph unicode="&#xc4;" horiz-adv-x="956" d="M-4 80l328 1223q16 63 77 63h158q62 0 78 -63l324 -1223q10 -39 -4 -59.5t-46 -20.5h-106q-61 0 -78 66l-72 280q-6 21 -24 21h-309q-19 0 -25 -21l-74 -280q-17 -66 -78 -66h-100q-32 0 -45.5 20.5t-3.5 59.5zM239 1532v67q0 58 55 58h72q55 0 55 -58v-67q0 -58 -55 -58 h-72q-55 0 -55 58zM360 592q-7 -25 17 -25h198q24 0 17 25l-115 448zM534 1532v67q0 58 55 58h72q55 0 55 -58v-67q0 -58 -55 -58h-72q-55 0 -55 58z" />
<glyph unicode="&#xc5;" horiz-adv-x="956" d="M-4 80l328 1223q16 63 77 63h158q62 0 78 -63l324 -1223q10 -39 -4 -59.5t-46 -20.5h-106q-61 0 -78 66l-72 280q-6 21 -24 21h-309q-19 0 -25 -21l-74 -280q-17 -66 -78 -66h-100q-32 0 -45.5 20.5t-3.5 59.5zM272 1649q0 85 60 144.5t145 59.5t145 -59.5t60 -144.5 t-60 -145t-145 -60t-145 60t-60 145zM360 592q-7 -25 17 -25h198q24 0 17 25l-115 448zM381 1649q0 -40 28 -68.5t68 -28.5t68 28.5t28 68.5t-28 68t-68 28t-68 -28t-28 -68z" />
<glyph unicode="&#xc6;" horiz-adv-x="1460" d="M-5 27q-12 27 3 53l598 1223q32 63 96 63h651q31 0 48.5 -16.5t17.5 -46.5v-74q0 -31 -17.5 -47.5t-48.5 -16.5h-387q-24 0 -24 -24v-303q0 -25 24 -25h261q65 0 65 -63v-74q0 -31 -17 -47.5t-48 -16.5h-261q-24 0 -24 -24v-363q0 -24 24 -24h408q31 0 48.5 -16.5 t17.5 -47.5v-74q0 -30 -17.5 -46.5t-48.5 -16.5h-592q-31 0 -48 17.5t-17 48.5v280q-6 21 -25 21h-285q-8 0 -14 -3t-8 -6.5t-6 -11.5l-136 -280q-34 -66 -90 -66h-102q-34 0 -46 27zM488 575q4 -8 16 -8h186q17 0 17 25v448l-218 -448q-5 -9 -1 -17z" />
<glyph unicode="&#xc7;" horiz-adv-x="823" d="M61 397v572q0 138 62.5 237t162.5 145t224 46q138 0 215.5 -36t77.5 -89v-51q0 -30 -17 -47t-43 -17q-12 0 -79.5 19.5t-131.5 19.5q-120 0 -182.5 -65t-62.5 -183v-530q0 -118 62.5 -183t182.5 -65q64 0 131.5 19.5t79.5 19.5q26 0 43 -17t17 -47v-51q0 -52 -76 -88 t-211 -37l-41 -80q7 0 18.5 -1.5t41 -11t52.5 -25.5t41.5 -50t18.5 -80q0 -94 -76.5 -149t-179.5 -55q-72 0 -113.5 17.5t-33.5 43.5l12 51q7 27 33 27q5 0 35.5 -5t52.5 -5q49 0 83 21t34 69q0 69 -123 69q-21 0 -30 12.5t1 35.5l64 127q-155 28 -250 134t-95 283z" />
<glyph unicode="&#xc8;" horiz-adv-x="835" d="M82 66v1234q0 31 17 48.5t48 17.5h572q65 0 65 -63v-74q0 -31 -17 -47.5t-48 -16.5h-387q-25 0 -25 -24v-303q0 -25 25 -25h260q65 0 65 -63v-74q0 -31 -17 -47.5t-48 -16.5h-260q-25 0 -25 -24v-363q0 -24 25 -24h407q31 0 48.5 -16.5t17.5 -47.5v-74q0 -30 -17.5 -46.5 t-48.5 -16.5h-592q-31 0 -48 17.5t-17 48.5zM200.5 1740q7.5 19 34.5 19h109q29 0 46 -10t27 -37l64 -186q7 -21 -3.5 -36.5t-31.5 -15.5h-29q-45 0 -67 31l-142 197q-15 19 -7.5 38z" />
<glyph unicode="&#xc9;" horiz-adv-x="835" d="M82 66v1234q0 31 17 48.5t48 17.5h572q65 0 65 -63v-74q0 -31 -17 -47.5t-48 -16.5h-387q-25 0 -25 -24v-303q0 -25 25 -25h260q65 0 65 -63v-74q0 -31 -17 -47.5t-48 -16.5h-260q-25 0 -25 -24v-363q0 -24 25 -24h407q31 0 48.5 -16.5t17.5 -47.5v-74q0 -30 -17.5 -46.5 t-48.5 -16.5h-592q-31 0 -48 17.5t-17 48.5zM383 1526l63 186q10 27 27.5 37t46.5 10h109q27 0 34 -19t-8 -38l-141 -197q-22 -30 -68 -30h-28q-21 0 -31.5 15t-3.5 36z" />
<glyph unicode="&#xca;" horiz-adv-x="835" d="M82 66v1234q0 31 17 48.5t48 17.5h572q65 0 65 -63v-74q0 -31 -17 -47.5t-48 -16.5h-387q-25 0 -25 -24v-303q0 -25 25 -25h260q65 0 65 -63v-74q0 -31 -17 -47.5t-48 -16.5h-260q-25 0 -25 -24v-363q0 -24 25 -24h407q31 0 48.5 -16.5t17.5 -47.5v-74q0 -30 -17.5 -46.5 t-48.5 -16.5h-592q-31 0 -48 17.5t-17 48.5zM182 1526l107 186q27 47 80 47h143q53 0 80 -47l106 -186q10 -20 -0.5 -36t-31.5 -16h-33q-46 0 -68 31l-125 143l-125 -143q-22 -31 -67 -31h-33q-21 0 -32 16t-1 36z" />
<glyph unicode="&#xcb;" horiz-adv-x="835" d="M82 66v1234q0 31 17 48.5t48 17.5h572q65 0 65 -63v-74q0 -31 -17 -47.5t-48 -16.5h-387q-25 0 -25 -24v-303q0 -25 25 -25h260q65 0 65 -63v-74q0 -31 -17 -47.5t-48 -16.5h-260q-25 0 -25 -24v-363q0 -24 25 -24h407q31 0 48.5 -16.5t17.5 -47.5v-74q0 -30 -17.5 -46.5 t-48.5 -16.5h-592q-31 0 -48 17.5t-17 48.5zM193 1532v67q0 58 55 58h71q56 0 56 -58v-67q0 -57 -56 -57h-71q-55 0 -55 57zM487 1532v67q0 58 56 58h71q56 0 56 -58v-67q0 -57 -56 -57h-71q-56 0 -56 57z" />
<glyph unicode="&#xcc;" horiz-adv-x="389" d="M-18.5 1740q7.5 19 34.5 19h109q29 0 46 -10t27 -37l64 -186q7 -21 -3.5 -36.5t-31.5 -15.5h-29q-45 0 -67 31l-142 197q-15 19 -7.5 38zM82 63v1237q0 31 17 48.5t48 17.5h95q31 0 48 -17.5t17 -48.5v-1237q0 -63 -65 -63h-95q-65 0 -65 63z" />
<glyph unicode="&#xcd;" horiz-adv-x="389" d="M82 63v1237q0 31 17 48.5t48 17.5h95q31 0 48 -17.5t17 -48.5v-1237q0 -63 -65 -63h-95q-65 0 -65 63zM127 1526l63 186q10 27 27.5 37t46.5 10h109q27 0 34 -19t-8 -38l-141 -197q-22 -30 -68 -30h-28q-21 0 -31.5 15t-3.5 36z" />
<glyph unicode="&#xce;" horiz-adv-x="389" d="M-64 1526l107 186q27 47 80 47h143q53 0 80 -47l106 -186q10 -20 -0.5 -36t-31.5 -16h-33q-46 0 -68 31l-125 143l-125 -143q-22 -31 -67 -31h-33q-21 0 -32 16t-1 36zM82 63v1237q0 31 17 48.5t48 17.5h95q31 0 48 -17.5t17 -48.5v-1237q0 -63 -65 -63h-95q-65 0 -65 63 z" />
<glyph unicode="&#xcf;" horiz-adv-x="389" d="M-43 1532v67q0 58 55 58h72q55 0 55 -58v-67q0 -57 -55 -57h-72q-55 0 -55 57zM82 63v1237q0 31 17 48.5t48 17.5h95q31 0 48 -17.5t17 -48.5v-1237q0 -63 -65 -63h-95q-65 0 -65 63zM252 1532v67q0 58 55 58h72q55 0 55 -58v-67q0 -57 -55 -57h-72q-55 0 -55 57z" />
<glyph unicode="&#xd0;" horiz-adv-x="1001" d="M-10 651v70q0 61 61 61h31v521q0 63 65 63h369q119 0 213.5 -47.5t152.5 -146t58 -234.5v-510q0 -136 -58 -234.5t-152.5 -146t-213.5 -47.5h-369q-65 0 -65 63v527h-31q-61 0 -61 61zM307 225q0 -24 25 -24h184q91 0 145 56.5t54 170.5v510q0 114 -54 170.5t-145 56.5 h-184q-25 0 -25 -24v-359h162q61 0 61 -61v-70q0 -61 -61 -61h-162v-365z" />
<glyph unicode="&#xd1;" horiz-adv-x="1040" d="M82 63v1237q0 31 17 48.5t48 17.5h93q43 0 63 -39l432 -817v790q0 31 17.5 48.5t48.5 17.5h92q31 0 48 -17.5t17 -48.5v-1237q0 -63 -65 -63h-92q-45 0 -64 37l-432 817v-791q0 -63 -65 -63h-93q-65 0 -65 63zM254 1515q0 85 44.5 131.5t113.5 46.5q47 0 88.5 -20.5 t72 -40.5t50.5 -20q38 0 41 45q4 32 33 32h57q33 0 33 -41q0 -85 -44.5 -131.5t-113.5 -46.5q-47 0 -88.5 20.5t-72 41t-50.5 20.5q-38 0 -41 -45q-4 -33 -33 -33h-57q-33 0 -33 41z" />
<glyph unicode="&#xd2;" horiz-adv-x="970" d="M61 397v572q0 136 58 234.5t152.5 146t213.5 47.5t213.5 -47.5t152.5 -146t58 -234.5v-572q0 -136 -58 -234.5t-152.5 -146t-213.5 -47.5t-213.5 47.5t-152.5 146t-58 234.5zM256.5 1740q7.5 19 34.5 19h109q29 0 46 -10t27 -37l64 -186q7 -21 -3.5 -36.5t-31.5 -15.5 h-29q-45 0 -67 31l-142 197q-15 19 -7.5 38zM287 397q0 -114 53.5 -170.5t144.5 -56.5t145 56.5t54 170.5v572q0 114 -54 170.5t-145 56.5t-144.5 -56.5t-53.5 -170.5v-572z" />
<glyph unicode="&#xd3;" horiz-adv-x="970" d="M61 397v572q0 136 58 234.5t152.5 146t213.5 47.5t213.5 -47.5t152.5 -146t58 -234.5v-572q0 -136 -58 -234.5t-152.5 -146t-213.5 -47.5t-213.5 47.5t-152.5 146t-58 234.5zM287 397q0 -114 53.5 -170.5t144.5 -56.5t145 56.5t54 170.5v572q0 114 -54 170.5t-145 56.5 t-144.5 -56.5t-53.5 -170.5v-572zM426 1526l63 186q10 27 27.5 37t46.5 10h109q27 0 34 -19t-8 -38l-141 -197q-22 -30 -68 -30h-28q-21 0 -31.5 15t-3.5 36z" />
<glyph unicode="&#xd4;" horiz-adv-x="970" d="M61 397v572q0 136 58 234.5t152.5 146t213.5 47.5t213.5 -47.5t152.5 -146t58 -234.5v-572q0 -136 -58 -234.5t-152.5 -146t-213.5 -47.5t-213.5 47.5t-152.5 146t-58 234.5zM227 1526l107 186q27 47 80 47h143q53 0 80 -47l106 -186q10 -20 -0.5 -36t-31.5 -16h-33 q-46 0 -68 31l-125 143l-125 -143q-22 -31 -67 -31h-33q-21 0 -32 16t-1 36zM287 397q0 -114 53.5 -170.5t144.5 -56.5t145 56.5t54 170.5v572q0 114 -54 170.5t-145 56.5t-144.5 -56.5t-53.5 -170.5v-572z" />
<glyph unicode="&#xd5;" horiz-adv-x="970" d="M61 397v572q0 136 58 234.5t152.5 146t213.5 47.5t213.5 -47.5t152.5 -146t58 -234.5v-572q0 -136 -58 -234.5t-152.5 -146t-213.5 -47.5t-213.5 47.5t-152.5 146t-58 234.5zM219 1516q0 85 44.5 131.5t113.5 46.5q47 0 88.5 -20.5t72 -41t50.5 -20.5q38 0 41 45 q4 33 33 33h57q33 0 33 -41q0 -85 -44.5 -132t-113.5 -47q-47 0 -88.5 20.5t-72 41t-50.5 20.5q-38 0 -41 -45q-4 -32 -33 -32h-57q-33 0 -33 41zM287 397q0 -114 53.5 -170.5t144.5 -56.5t145 56.5t54 170.5v572q0 114 -54 170.5t-145 56.5t-144.5 -56.5t-53.5 -170.5v-572 z" />
<glyph unicode="&#xd6;" horiz-adv-x="970" d="M61 397v572q0 136 58 234.5t152.5 146t213.5 47.5t213.5 -47.5t152.5 -146t58 -234.5v-572q0 -136 -58 -234.5t-152.5 -146t-213.5 -47.5t-213.5 47.5t-152.5 146t-58 234.5zM248 1532v67q0 58 55 58h72q55 0 55 -58v-67q0 -58 -55 -58h-72q-55 0 -55 58zM287 397 q0 -114 53.5 -170.5t144.5 -56.5t145 56.5t54 170.5v572q0 114 -54 170.5t-145 56.5t-144.5 -56.5t-53.5 -170.5v-572zM543 1532v67q0 58 55 58h72q55 0 55 -58v-67q0 -58 -55 -58h-72q-55 0 -55 58z" />
<glyph unicode="&#xd7;" horiz-adv-x="643" d="M54.5 718q-1.5 21 17.5 40l39 39q40 40 82 -2l129 -129l129 129q41 41 81 2l39 -39q19 -19 17.5 -40t-21.5 -40l-129 -129l131 -131q42 -42 2 -82l-39 -39q-39 -39 -79 4l-131 131l-132 -131q-40 -43 -79 -4l-39 39q-40 40 2 82l131 131l-129 129q-20 19 -21.5 40z" />
<glyph unicode="&#xd8;" horiz-adv-x="970" d="M37 61l69 125q-45 88 -45 211v572q0 136 58 234.5t152.5 146t213.5 47.5q145 0 252 -72l39 68q28 51 78 24l57 -33q50 -26 23 -79l-70 -125q45 -92 45 -211v-572q0 -136 -58 -234.5t-152.5 -146t-213.5 -47.5q-144 0 -254 72l-36 -68q-28 -51 -78 -24l-58 33 q-50 25 -22 79zM287 510l346 625q-55 61 -148 61q-91 0 -144.5 -56.5t-53.5 -170.5v-459zM338 229q50 -59 147 -59q91 0 145 56.5t54 170.5v457z" />
<glyph unicode="&#xd9;" horiz-adv-x="1003" d="M78 397v903q0 31 17 48.5t48 17.5h95q31 0 48 -17.5t17 -48.5v-903q0 -114 54 -170.5t145 -56.5t144.5 56.5t53.5 170.5v903q0 31 17.5 48.5t48.5 17.5h94q31 0 48.5 -17.5t17.5 -48.5v-903q0 -136 -58 -234.5t-152.5 -146t-213.5 -47.5t-213.5 47.5t-152.5 146 t-58 234.5zM270.5 1740q7.5 19 34.5 19h109q29 0 46 -10t27 -37l64 -186q7 -21 -3.5 -36.5t-31.5 -15.5h-29q-45 0 -67 31l-142 197q-15 19 -7.5 38z" />
<glyph unicode="&#xda;" horiz-adv-x="1003" d="M78 397v903q0 31 17 48.5t48 17.5h95q31 0 48 -17.5t17 -48.5v-903q0 -114 54 -170.5t145 -56.5t144.5 56.5t53.5 170.5v903q0 31 17.5 48.5t48.5 17.5h94q31 0 48.5 -17.5t17.5 -48.5v-903q0 -136 -58 -234.5t-152.5 -146t-213.5 -47.5t-213.5 47.5t-152.5 146 t-58 234.5zM434 1526l64 186q10 27 27 37t46 10h109q27 0 34.5 -19t-7.5 -38l-142 -197q-13 -18 -27.5 -24t-39.5 -6h-29q-21 0 -31.5 15t-3.5 36z" />
<glyph unicode="&#xdb;" horiz-adv-x="1003" d="M78 397v903q0 31 17 48.5t48 17.5h95q31 0 48 -17.5t17 -48.5v-903q0 -114 54 -170.5t145 -56.5t144.5 56.5t53.5 170.5v903q0 31 17.5 48.5t48.5 17.5h94q31 0 48.5 -17.5t17.5 -48.5v-903q0 -136 -58 -234.5t-152.5 -146t-213.5 -47.5t-213.5 47.5t-152.5 146 t-58 234.5zM243 1526l107 186q27 47 80 47h143q53 0 80 -47l106 -186q10 -20 -0.5 -36t-31.5 -16h-33q-46 0 -68 31l-125 143l-125 -143q-22 -31 -67 -31h-33q-21 0 -32 16t-1 36z" />
<glyph unicode="&#xdc;" horiz-adv-x="1003" d="M78 397v903q0 31 17 48.5t48 17.5h95q31 0 48 -17.5t17 -48.5v-903q0 -114 54 -170.5t145 -56.5t144.5 56.5t53.5 170.5v903q0 31 17.5 48.5t48.5 17.5h94q31 0 48.5 -17.5t17.5 -48.5v-903q0 -136 -58 -234.5t-152.5 -146t-213.5 -47.5t-213.5 47.5t-152.5 146 t-58 234.5zM264 1532v67q0 58 55 58h72q55 0 55 -58v-67q0 -57 -55 -57h-72q-55 0 -55 57zM559 1532v67q0 58 55 58h72q55 0 55 -58v-67q0 -57 -55 -57h-72q-55 0 -55 57z" />
<glyph unicode="&#xdd;" horiz-adv-x="899" d="M-15.5 1344.5q9.5 21.5 38.5 21.5h122q55 0 84 -59l222 -484l225 484q15 30 33.5 44.5t50.5 14.5h117q29 0 38 -21.5t-2 -41.5l-338 -697q-14 -28 -14 -78v-465q0 -63 -65 -63h-95q-65 0 -65 63v465q0 42 -17 76l-333 699q-11 20 -1.5 41.5zM405 1526l64 186 q10 27 27.5 37t46.5 10h108q27 0 34.5 -19t-7.5 -38l-142 -197q-22 -31 -67 -31h-29q-21 0 -31.5 15.5t-3.5 36.5z" />
<glyph unicode="&#xde;" horiz-adv-x="950" d="M82 63v1240q0 63 65 63h95q65 0 65 -63v-170q0 -25 25 -25h129q89 0 168.5 -25.5t142.5 -74.5t100 -128.5t37 -179.5t-37 -179.5t-100 -128t-142.5 -74t-168.5 -25.5h-129q-25 0 -25 -25v-205q0 -63 -65 -63h-95q-65 0 -65 63zM307 518q0 -24 25 -24h129q96 0 159.5 50.5 t63.5 155.5q0 106 -63.5 156.5t-159.5 50.5h-129q-25 0 -25 -24v-365z" />
<glyph unicode="&#xdf;" horiz-adv-x="894" d="M68 61v912q0 106 30 184.5t81.5 122.5t113 65t133.5 21q143 0 238.5 -88t95.5 -236q0 -57 -20 -107t-49 -84t-57.5 -61.5t-48.5 -52t-20 -43.5q0 -17 30 -42.5t72.5 -59t84.5 -75.5t72 -107t30 -140q0 -125 -85.5 -207.5t-219.5 -82.5q-80 0 -147.5 27.5t-67.5 74.5v61 q0 23 12 36.5t31 13.5q13 0 55 -16.5t84 -16.5q53 0 87 33.5t34 87.5q0 43 -21.5 80.5t-53 63.5t-69 56t-69 57t-53 67.5t-21.5 86.5q0 40 15 75t37 59t48.5 50t48.5 48t37 53t15 65q0 61 -33 97.5t-90 36.5q-66 0 -104.5 -50t-38.5 -149v-916q0 -29 -16.5 -45t-45.5 -16 h-94q-61 0 -61 61z" />
<glyph unicode="&#xe0;" d="M41 322q0 205 134.5 318.5t356.5 113.5q-9 147 -170 147q-57 0 -110 -12t-64 -12q-19 0 -33 12.5t-14 38.5v51q0 40 63.5 69t182.5 29q165 0 264 -84.5t99 -257.5v-672q0 -63 -62 -63h-84q-29 0 -43 16.5t-14 40.5q-26 -28 -74.5 -52.5t-118.5 -24.5q-141 0 -227 89 t-86 253zM225.5 1431q7.5 19 34.5 19h109q29 0 46 -10t27 -37l64 -186q7 -21 -3.5 -36.5t-31.5 -15.5h-29q-45 0 -67 31l-142 197q-15 19 -7.5 38zM258 338q0 -82 36 -126t101 -44q61 0 99 44t38 126v248q-123 0 -198.5 -64t-75.5 -184z" />
<glyph unicode="&#xe1;" d="M41 322q0 205 134.5 318.5t356.5 113.5q-9 147 -170 147q-57 0 -110 -12t-64 -12q-19 0 -33 12.5t-14 38.5v51q0 40 63.5 69t182.5 29q165 0 264 -84.5t99 -257.5v-672q0 -63 -62 -63h-84q-29 0 -43 16.5t-14 40.5q-26 -28 -74.5 -52.5t-118.5 -24.5q-141 0 -227 89 t-86 253zM258 338q0 -82 36 -126t101 -44q61 0 99 44t38 126v248q-123 0 -198.5 -64t-75.5 -184zM377 1217l63 186q10 27 27.5 37t46.5 10h109q27 0 34 -19t-8 -38l-141 -197q-22 -31 -68 -31h-28q-21 0 -31.5 15.5t-3.5 36.5z" />
<glyph unicode="&#xe2;" d="M41 322q0 205 134.5 318.5t356.5 113.5q-9 147 -170 147q-57 0 -110 -12t-64 -12q-19 0 -33 12.5t-14 38.5v51q0 40 63.5 69t182.5 29q165 0 264 -84.5t99 -257.5v-672q0 -63 -62 -63h-84q-29 0 -43 16.5t-14 40.5q-26 -28 -74.5 -52.5t-118.5 -24.5q-141 0 -227 89 t-86 253zM182 1217l107 186q27 47 80 47h143q53 0 80 -47l106 -186q10 -20 -0.5 -36t-31.5 -16h-33q-46 0 -68 31l-125 143l-125 -143q-22 -31 -67 -31h-33q-21 0 -32 16t-1 36zM258 338q0 -82 36 -126t101 -44q61 0 99 44t38 126v248q-123 0 -198.5 -64t-75.5 -184z" />
<glyph unicode="&#xe3;" d="M41 322q0 205 134.5 318.5t356.5 113.5q-9 147 -170 147q-57 0 -110 -12t-64 -12q-19 0 -33 12.5t-14 38.5v51q0 40 63.5 69t182.5 29q165 0 264 -84.5t99 -257.5v-672q0 -63 -62 -63h-84q-29 0 -43 16.5t-14 40.5q-26 -28 -74.5 -52.5t-118.5 -24.5q-141 0 -227 89 t-86 253zM170 1206q0 85 44.5 131.5t113.5 46.5q47 0 88.5 -20t72 -40.5t50.5 -20.5q38 0 41 45q4 32 32 32h58q32 0 32 -41q0 -85 -44 -131.5t-113 -46.5q-47 0 -88.5 20.5t-72 41t-50.5 20.5q-38 0 -41 -45q-4 -33 -33 -33h-57q-33 0 -33 41zM258 338q0 -82 36 -126 t101 -44q61 0 99 44t38 126v248q-123 0 -198.5 -64t-75.5 -184z" />
<glyph unicode="&#xe4;" d="M41 322q0 205 134.5 318.5t356.5 113.5q-9 147 -170 147q-57 0 -110 -12t-64 -12q-19 0 -33 12.5t-14 38.5v51q0 40 63.5 69t182.5 29q165 0 264 -84.5t99 -257.5v-672q0 -63 -62 -63h-84q-29 0 -43 16.5t-14 40.5q-26 -28 -74.5 -52.5t-118.5 -24.5q-141 0 -227 89 t-86 253zM205 1223v67q0 58 55 58h72q55 0 55 -58v-67q0 -58 -55 -58h-72q-55 0 -55 58zM258 338q0 -82 36 -126t101 -44q61 0 99 44t38 126v248q-123 0 -198.5 -64t-75.5 -184zM500 1223v67q0 58 55 58h72q55 0 55 -58v-67q0 -58 -55 -58h-72q-55 0 -55 58z" />
<glyph unicode="&#xe5;" d="M41 322q0 205 134.5 318.5t356.5 113.5q-9 147 -170 147q-57 0 -110 -12t-64 -12q-19 0 -33 12.5t-14 38.5v51q0 40 63.5 69t182.5 29q165 0 264 -84.5t99 -257.5v-672q0 -63 -62 -63h-84q-29 0 -43 16.5t-14 40.5q-26 -28 -74.5 -52.5t-118.5 -24.5q-141 0 -227 89 t-86 253zM229 1339q0 85 60 145t145 60t145 -60t60 -145t-60 -144.5t-145 -59.5t-145 59.5t-60 144.5zM258 338q0 -82 36 -126t101 -44q61 0 99 44t38 126v248q-123 0 -198.5 -64t-75.5 -184zM338 1339q0 -40 28 -68t68 -28t68 28t28 68t-28 68.5t-68 28.5t-68 -28.5 t-28 -68.5z" />
<glyph unicode="&#xe6;" horiz-adv-x="1296" d="M41 322q0 205 134.5 318.5t356.5 113.5q-9 147 -170 147q-57 0 -110 -12t-64 -12q-19 0 -33 12.5t-14 38.5v51q0 40 63.5 69t182.5 29q159 0 256 -78q93 78 244 78q163 0 258.5 -91.5t95.5 -262.5v-201q0 -61 -61 -61h-430v-103q0 -99 54 -143.5t144 -44.5 q54 0 108.5 17.5t71.5 17.5q25 0 39.5 -14t14.5 -37v-48q0 -53 -69 -89.5t-189 -36.5q-204 0 -306 118q-86 -118 -247 -118q-142 0 -236 92t-94 250zM258 338q0 -82 36 -126t101 -44q63 0 100 44.5t37 137.5v236q-123 0 -198.5 -64t-75.5 -184zM750 645h274v78 q0 82 -38.5 123t-98.5 41t-98.5 -41t-38.5 -123v-78z" />
<glyph unicode="&#xe7;" horiz-adv-x="649" d="M61 319v418q0 172 91.5 256t248.5 84q86 0 157 -29t71 -77v-56q0 -23 -14.5 -38t-36.5 -15q-14 0 -61.5 12.5t-90.5 12.5q-147 0 -147 -168v-381q0 -168 147 -168q43 0 90.5 12.5t61.5 12.5q22 0 36.5 -15.5t14.5 -38.5v-55q0 -46 -65.5 -74.5t-149.5 -31.5l-47 -91 q7 0 18.5 -1.5t41 -11t52.5 -25.5t41.5 -50t18.5 -80q0 -94 -76.5 -149t-179.5 -55q-72 0 -114 17.5t-34 43.5l12 51q7 27 33 27q5 0 35.5 -5t52.5 -5q49 0 83 21t34 69q0 69 -123 69q-21 0 -30 12.5t1 35.5l70 137q-114 23 -178 104.5t-64 224.5z" />
<glyph unicode="&#xe8;" horiz-adv-x="825" d="M61 360v363q0 171 95.5 262.5t259.5 91.5q163 0 258.5 -91.5t95.5 -262.5v-201q0 -61 -61 -61h-430v-103q0 -99 54 -143.5t144 -44.5q54 0 108.5 17.5t71.5 17.5q25 0 39.5 -14t14.5 -37v-48q0 -53 -69 -89.5t-189 -36.5q-184 0 -288 100.5t-104 279.5zM198.5 1431 q7.5 19 34.5 19h109q29 0 46 -10t27 -37l64 -186q7 -21 -3.5 -36.5t-31.5 -15.5h-29q-45 0 -67 31l-142 197q-15 19 -7.5 38zM279 645h274v78q0 82 -38.5 123t-98.5 41t-98.5 -41t-38.5 -123v-78z" />
<glyph unicode="&#xe9;" horiz-adv-x="825" d="M61 360v363q0 171 95.5 262.5t259.5 91.5q163 0 258.5 -91.5t95.5 -262.5v-201q0 -61 -61 -61h-430v-103q0 -99 54 -143.5t144 -44.5q54 0 108.5 17.5t71.5 17.5q25 0 39.5 -14t14.5 -37v-48q0 -53 -69 -89.5t-189 -36.5q-184 0 -288 100.5t-104 279.5zM279 645h274v78 q0 82 -38.5 123t-98.5 41t-98.5 -41t-38.5 -123v-78zM379 1217l63 186q10 27 27.5 37t46.5 10h109q27 0 34 -19t-8 -38l-141 -197q-22 -31 -68 -31h-28q-21 0 -31.5 15.5t-3.5 36.5z" />
<glyph unicode="&#xea;" horiz-adv-x="825" d="M61 360v363q0 171 95.5 262.5t259.5 91.5q163 0 258.5 -91.5t95.5 -262.5v-201q0 -61 -61 -61h-430v-103q0 -99 54 -143.5t144 -44.5q54 0 108.5 17.5t71.5 17.5q25 0 39.5 -14t14.5 -37v-48q0 -53 -69 -89.5t-189 -36.5q-184 0 -288 100.5t-104 279.5zM155 1217l107 186 q27 47 80 47h143q53 0 80 -47l106 -186q10 -20 -0.5 -36t-31.5 -16h-33q-46 0 -68 31l-125 143l-125 -143q-22 -31 -67 -31h-33q-21 0 -32 16t-1 36zM279 645h274v78q0 82 -38.5 123t-98.5 41t-98.5 -41t-38.5 -123v-78z" />
<glyph unicode="&#xeb;" horiz-adv-x="825" d="M61 360v363q0 171 95.5 262.5t259.5 91.5q163 0 258.5 -91.5t95.5 -262.5v-201q0 -61 -61 -61h-430v-103q0 -99 54 -143.5t144 -44.5q54 0 108.5 17.5t71.5 17.5q25 0 39.5 -14t14.5 -37v-48q0 -53 -69 -89.5t-189 -36.5q-184 0 -288 100.5t-104 279.5zM174 1223v67 q0 58 55 58h72q55 0 55 -58v-67q0 -58 -55 -58h-72q-55 0 -55 58zM279 645h274v78q0 82 -38.5 123t-98.5 41t-98.5 -41t-38.5 -123v-78zM469 1223v67q0 58 55 58h72q55 0 55 -58v-67q0 -58 -55 -58h-72q-55 0 -55 58z" />
<glyph unicode="&#xec;" horiz-adv-x="360" d="M-30.5 1431q7.5 19 34.5 19h109q29 0 46 -10t27 -37l64 -186q7 -21 -3.5 -36.5t-31.5 -15.5h-29q-45 0 -67 31l-142 197q-15 19 -7.5 38zM72 61v934q0 29 16 45.5t45 16.5h94q29 0 45.5 -16.5t16.5 -45.5v-934q0 -29 -16.5 -45t-45.5 -16h-94q-61 0 -61 61z" />
<glyph unicode="&#xed;" horiz-adv-x="360" d="M72 61v934q0 29 16 45.5t45 16.5h94q29 0 45.5 -16.5t16.5 -45.5v-934q0 -29 -16.5 -45t-45.5 -16h-94q-61 0 -61 61zM109 1217l63 186q10 27 27.5 37t46.5 10h108q27 0 34.5 -19t-7.5 -38l-141 -197q-22 -31 -68 -31h-29q-21 0 -31 15.5t-3 36.5z" />
<glyph unicode="&#xee;" horiz-adv-x="360" d="M-78 1217l107 186q27 47 80 47h143q53 0 80 -47l106 -186q10 -20 -0.5 -36t-31.5 -16h-33q-46 0 -68 31l-125 143l-125 -143q-22 -31 -67 -31h-33q-21 0 -32 16t-1 36zM72 61v934q0 29 16 45.5t45 16.5h94q29 0 45.5 -16.5t16.5 -45.5v-934q0 -29 -16.5 -45t-45.5 -16 h-94q-61 0 -61 61z" />
<glyph unicode="&#xef;" horiz-adv-x="360" d="M-57 1223v67q0 58 55 58h72q55 0 55 -58v-67q0 -58 -55 -58h-72q-55 0 -55 58zM72 61v934q0 29 16 45.5t45 16.5h94q29 0 45.5 -16.5t16.5 -45.5v-934q0 -29 -16.5 -45t-45.5 -16h-94q-61 0 -61 61zM238 1223v67q0 58 55 58h72q55 0 55 -58v-67q0 -58 -55 -58h-72 q-55 0 -55 58z" />
<glyph unicode="&#xf0;" horiz-adv-x="831" d="M61 334v266q0 171 95.5 262.5t259.5 91.5q44 0 96 -10q-23 83 -55 146l-105 -56q-55 -29 -84 27l-14 31q-26 55 27 82l90 47l-60 61q-22 20 -22 43q0 41 57 41h60q55 0 118 -63l92 47q51 26 82 -27l17 -29q15 -26 7.5 -48t-34.5 -36l-70 -36q67 -117 109.5 -267.5 t42.5 -290.5v-288q0 -168 -96 -258t-258 -90q-164 0 -259.5 91.5t-95.5 262.5zM279 334q0 -82 38.5 -123t98.5 -41t98.5 41t38.5 123v266q0 82 -38.5 123t-98.5 41t-98.5 -41t-38.5 -123v-266z" />
<glyph unicode="&#xf1;" horiz-adv-x="847" d="M72 61v934q0 29 16 45.5t45 16.5h94q53 0 62 -51q74 71 186 71q143 0 224 -92t81 -262v-662q0 -61 -61 -61h-94q-29 0 -45.5 16t-16.5 45v662q0 82 -38.5 123t-98.5 41q-58 0 -97.5 -41t-39.5 -127v-658q0 -29 -16.5 -45t-45.5 -16h-94q-61 0 -61 61zM160 1206 q0 85 44.5 131.5t113.5 46.5q47 0 88.5 -20t72 -40.5t50.5 -20.5q38 0 41 45q4 32 33 32h57q33 0 33 -41q0 -85 -44.5 -131.5t-113.5 -46.5q-47 0 -88.5 20.5t-72 41t-50.5 20.5q-38 0 -41 -45q-4 -33 -33 -33h-57q-33 0 -33 41z" />
<glyph unicode="&#xf2;" horiz-adv-x="831" d="M61 334v389q0 171 95.5 262.5t259.5 91.5q163 0 258.5 -91.5t95.5 -262.5v-389q0 -171 -95.5 -262.5t-258.5 -91.5q-164 0 -259.5 91.5t-95.5 262.5zM188.5 1431q7.5 19 34.5 19h109q29 0 46 -10t27 -37l64 -186q7 -21 -3.5 -36.5t-31.5 -15.5h-29q-45 0 -67 31l-142 197 q-15 19 -7.5 38zM279 334q0 -82 38.5 -123t98.5 -41t98.5 41t38.5 123v389q0 82 -38.5 123t-98.5 41t-98.5 -41t-38.5 -123v-389z" />
<glyph unicode="&#xf3;" horiz-adv-x="831" d="M61 334v389q0 171 95.5 262.5t259.5 91.5q163 0 258.5 -91.5t95.5 -262.5v-389q0 -171 -95.5 -262.5t-258.5 -91.5q-164 0 -259.5 91.5t-95.5 262.5zM279 334q0 -82 38.5 -123t98.5 -41t98.5 41t38.5 123v389q0 82 -38.5 123t-98.5 41t-98.5 -41t-38.5 -123v-389z M362 1217l64 186q10 27 27.5 37t46.5 10h108q27 0 34.5 -19t-7.5 -38l-141 -197q-22 -31 -68 -31h-29q-21 0 -31.5 15.5t-3.5 36.5z" />
<glyph unicode="&#xf4;" horiz-adv-x="831" d="M61 334v389q0 171 95.5 262.5t259.5 91.5q163 0 258.5 -91.5t95.5 -262.5v-389q0 -171 -95.5 -262.5t-258.5 -91.5q-164 0 -259.5 91.5t-95.5 262.5zM157 1217l107 186q27 47 80 47h143q53 0 80 -47l106 -186q10 -20 -0.5 -36t-31.5 -16h-33q-46 0 -68 31l-125 143 l-125 -143q-22 -31 -67 -31h-33q-21 0 -32 16t-1 36zM279 334q0 -82 38.5 -123t98.5 -41t98.5 41t38.5 123v389q0 82 -38.5 123t-98.5 41t-98.5 -41t-38.5 -123v-389z" />
<glyph unicode="&#xf5;" horiz-adv-x="831" d="M61 334v389q0 171 95.5 262.5t259.5 91.5q163 0 258.5 -91.5t95.5 -262.5v-389q0 -171 -95.5 -262.5t-258.5 -91.5q-164 0 -259.5 91.5t-95.5 262.5zM150 1206q0 85 44 131.5t113 46.5q47 0 88.5 -20t72 -40.5t50.5 -20.5q38 0 41 45q4 32 33 32h57q33 0 33 -41 q0 -85 -44.5 -131.5t-113.5 -46.5q-47 0 -88.5 20.5t-72 41t-50.5 20.5q-38 0 -41 -45q-4 -33 -32 -33h-58q-32 0 -32 41zM279 334q0 -82 38.5 -123t98.5 -41t98.5 41t38.5 123v389q0 82 -38.5 123t-98.5 41t-98.5 -41t-38.5 -123v-389z" />
<glyph unicode="&#xf6;" horiz-adv-x="831" d="M61 334v389q0 171 95.5 262.5t259.5 91.5q163 0 258.5 -91.5t95.5 -262.5v-389q0 -171 -95.5 -262.5t-258.5 -91.5q-164 0 -259.5 91.5t-95.5 262.5zM176 1223v67q0 58 55 58h72q55 0 55 -58v-67q0 -58 -55 -58h-72q-55 0 -55 58zM279 334q0 -82 38.5 -123t98.5 -41 t98.5 41t38.5 123v389q0 82 -38.5 123t-98.5 41t-98.5 -41t-38.5 -123v-389zM471 1223v67q0 58 55 58h72q55 0 55 -58v-67q0 -58 -55 -58h-72q-55 0 -55 58z" />
<glyph unicode="&#xf7;" horiz-adv-x="692" d="M51 520v55q0 56 60 56h471q59 0 59 -56v-55q0 -55 -59 -55h-471q-60 0 -60 55zM258 287v59q0 55 59 55h58q59 0 59 -55v-59q0 -56 -59 -56h-58q-59 0 -59 56zM258 750v59q0 55 59 55h58q59 0 59 -55v-59q0 -56 -59 -56h-58q-59 0 -59 56z" />
<glyph unicode="&#xf8;" horiz-adv-x="831" d="M43 86l49 80q-31 73 -31 168v389q0 171 95.5 262.5t259.5 91.5q125 0 211 -53l22 35q32 46 78 18l45 -28q46 -28 16 -78l-49 -80q31 -73 31 -168v-389q0 -171 -95.5 -262.5t-258.5 -91.5q-125 0 -211 53l-23 -35q-17 -26 -35.5 -29.5t-42.5 11.5l-45 28q-46 28 -16 78z M279 465l235 379q-37 43 -98 43q-60 0 -98.5 -41t-38.5 -123v-258zM315 213q35 -43 101 -43q60 0 98.5 41t38.5 123v260z" />
<glyph unicode="&#xf9;" horiz-adv-x="847" d="M68 334v661q0 29 16 45.5t45 16.5h94q29 0 45.5 -16.5t16.5 -45.5v-661q0 -82 38.5 -123t98.5 -41t98.5 41t38.5 123v661q0 29 16.5 45.5t45.5 16.5h94q29 0 45 -16.5t16 -45.5v-934q0 -61 -61 -61h-94q-56 0 -62 51q-74 -71 -186 -71q-143 0 -224 92t-81 262z M198.5 1431q7.5 19 34.5 19h109q29 0 46 -10t27 -37l64 -186q7 -21 -3.5 -36.5t-31.5 -15.5h-29q-45 0 -67 31l-142 197q-15 19 -7.5 38z" />
<glyph unicode="&#xfa;" horiz-adv-x="847" d="M68 334v661q0 29 16 45.5t45 16.5h94q29 0 45.5 -16.5t16.5 -45.5v-661q0 -82 38.5 -123t98.5 -41t98.5 41t38.5 123v661q0 29 16.5 45.5t45.5 16.5h94q29 0 45 -16.5t16 -45.5v-934q0 -61 -61 -61h-94q-56 0 -62 51q-74 -71 -186 -71q-143 0 -224 92t-81 262zM365 1217 l63 186q10 27 27.5 37t46.5 10h108q27 0 34.5 -19t-7.5 -38l-141 -197q-22 -31 -68 -31h-29q-21 0 -31 15.5t-3 36.5z" />
<glyph unicode="&#xfb;" horiz-adv-x="847" d="M68 334v661q0 29 16 45.5t45 16.5h94q29 0 45.5 -16.5t16.5 -45.5v-661q0 -82 38.5 -123t98.5 -41t98.5 41t38.5 123v661q0 29 16.5 45.5t45.5 16.5h94q29 0 45 -16.5t16 -45.5v-934q0 -61 -61 -61h-94q-56 0 -62 51q-74 -71 -186 -71q-143 0 -224 92t-81 262zM166 1217 l107 186q27 47 80 47h143q53 0 80 -47l106 -186q10 -20 -0.5 -36t-31.5 -16h-33q-46 0 -68 31l-125 143l-125 -143q-22 -31 -67 -31h-33q-21 0 -32 16t-1 36z" />
<glyph unicode="&#xfc;" horiz-adv-x="847" d="M68 334v661q0 29 16 45.5t45 16.5h94q29 0 45.5 -16.5t16.5 -45.5v-661q0 -82 38.5 -123t98.5 -41t98.5 41t38.5 123v661q0 29 16.5 45.5t45.5 16.5h94q29 0 45 -16.5t16 -45.5v-934q0 -61 -61 -61h-94q-56 0 -62 51q-74 -71 -186 -71q-143 0 -224 92t-81 262zM184 1223 v67q0 58 56 58h71q56 0 56 -58v-67q0 -58 -56 -58h-71q-56 0 -56 58zM479 1223v67q0 58 56 58h71q56 0 56 -58v-67q0 -58 -56 -58h-71q-56 0 -56 58z" />
<glyph unicode="&#xfd;" horiz-adv-x="813" d="M-4 989q-10 32 1.5 50t41.5 18h115q53 0 73 -62l179 -565l188 565q20 62 76 62h98q31 0 45.5 -18t3.5 -52l-389 -1171q-9 -28 -31 -45t-51 -17h-102q-28 0 -38.5 18.5t-2.5 43.5l92 280zM360 1217l64 186q10 27 27.5 37t46.5 10h108q27 0 34.5 -19t-7.5 -38l-142 -197 q-22 -31 -67 -31h-29q-21 0 -31.5 15.5t-3.5 36.5z" />
<glyph unicode="&#xfe;" horiz-adv-x="841" d="M72 -184v1489q0 61 61 61h94q29 0 45.5 -16t16.5 -45v-299q74 71 186 71q143 0 224 -92t81 -262v-389q0 -170 -81 -262t-224 -92q-115 0 -186 71v-235q0 -29 -16.5 -45.5t-45.5 -16.5h-94q-29 0 -45 16.5t-16 45.5zM289 330q0 -80 39.5 -120t97.5 -40q60 0 98.5 41 t38.5 123v389q0 82 -38.5 123t-98.5 41q-58 0 -97.5 -40t-39.5 -120v-397z" />
<glyph unicode="&#xff;" horiz-adv-x="813" d="M-4 989q-10 32 1.5 50t41.5 18h115q53 0 73 -62l179 -565l188 565q20 62 76 62h98q31 0 45.5 -18t3.5 -52l-389 -1171q-9 -28 -31 -45t-51 -17h-102q-28 0 -38.5 18.5t-2.5 43.5l92 280zM168 1223v67q0 58 55 58h72q55 0 55 -58v-67q0 -58 -55 -58h-72q-55 0 -55 58z M463 1223v67q0 58 55 58h72q55 0 55 -58v-67q0 -58 -55 -58h-72q-55 0 -55 58z" />
<glyph unicode="&#x152;" horiz-adv-x="1437" d="M61 397v572q0 136 58 234.5t152.5 146t213.5 47.5q116 0 213 -51q20 20 52 20h571q65 0 65 -63v-74q0 -31 -17 -47.5t-48 -16.5h-387q-25 0 -25 -24v-303q0 -25 25 -25h260q31 0 48.5 -16.5t17.5 -46.5v-74q0 -31 -17.5 -47.5t-48.5 -16.5h-260q-25 0 -25 -24v-363 q0 -24 25 -24h407q31 0 48.5 -16.5t17.5 -47.5v-74q0 -30 -17.5 -46.5t-48.5 -16.5h-591q-35 0 -50 18q-94 -49 -215 -49q-119 0 -213.5 47.5t-152.5 146t-58 234.5zM287 397q0 -114 53.5 -170.5t144.5 -56.5t145 56.5t54 170.5v572q0 114 -54 170.5t-145 56.5t-144.5 -56.5 t-53.5 -170.5v-572z" />
<glyph unicode="&#x153;" horiz-adv-x="1316" d="M61 334v389q0 171 95.5 262.5t259.5 91.5q152 0 243 -82q91 82 248 82q164 0 259.5 -91.5t95.5 -262.5v-201q0 -29 -16.5 -45t-45.5 -16h-430v-103q0 -99 54.5 -143.5t144.5 -44.5q54 0 108.5 17.5t71.5 17.5q25 0 39 -14t14 -37v-48q0 -53 -69 -89.5t-189 -36.5 q-172 0 -274 88q-91 -88 -254 -88q-164 0 -259.5 91.5t-95.5 262.5zM279 334q0 -82 38.5 -123t98.5 -41t98.5 41t38.5 123v389q0 82 -38.5 123t-98.5 41t-98.5 -41t-38.5 -123v-389zM770 645h274v78q0 82 -38.5 123t-98.5 41t-98.5 -41t-38.5 -123v-78z" />
<glyph unicode="&#x178;" horiz-adv-x="899" d="M-15.5 1344.5q9.5 21.5 38.5 21.5h122q55 0 84 -59l222 -484l225 484q15 30 33.5 44.5t50.5 14.5h117q29 0 38 -21.5t-2 -41.5l-338 -697q-14 -28 -14 -78v-465q0 -63 -65 -63h-95q-65 0 -65 63v465q0 42 -17 76l-333 699q-11 20 -1.5 41.5zM211 1532v67q0 58 55 58h72 q55 0 55 -58v-67q0 -58 -55 -58h-72q-55 0 -55 58zM506 1532v67q0 58 55 58h72q55 0 55 -58v-67q0 -58 -55 -58h-72q-55 0 -55 58z" />
<glyph unicode="&#x2c6;" horiz-adv-x="630" d="M57 1217l107 186q27 47 80 47h143q53 0 80 -47l106 -186q10 -20 -0.5 -36t-31.5 -16h-33q-46 0 -68 31l-125 143l-125 -143q-22 -31 -67 -31h-33q-21 0 -32 16t-1 36z" />
<glyph unicode="&#x2dc;" horiz-adv-x="634" d="M51 1206q0 85 44.5 131.5t113.5 46.5q47 0 88.5 -20t72 -40.5t50.5 -20.5q38 0 41 45q4 32 33 32h57q33 0 33 -41q0 -85 -44.5 -131.5t-113.5 -46.5q-47 0 -88.5 20.5t-72 41t-50.5 20.5q-38 0 -41 -45q-4 -33 -33 -33h-57q-33 0 -33 41z" />
<glyph unicode="&#x2000;" horiz-adv-x="926" />
<glyph unicode="&#x2001;" horiz-adv-x="1853" />
<glyph unicode="&#x2002;" horiz-adv-x="926" />
<glyph unicode="&#x2003;" horiz-adv-x="1853" />
<glyph unicode="&#x2004;" horiz-adv-x="617" />
<glyph unicode="&#x2005;" horiz-adv-x="463" />
<glyph unicode="&#x2006;" horiz-adv-x="308" />
<glyph unicode="&#x2007;" horiz-adv-x="308" />
<glyph unicode="&#x2008;" horiz-adv-x="231" />
<glyph unicode="&#x2009;" horiz-adv-x="370" />
<glyph unicode="&#x200a;" horiz-adv-x="102" />
<glyph unicode="&#x2010;" horiz-adv-x="573" d="M51 569v64q0 29 16.5 45t45.5 16h348q61 0 61 -61v-64q0 -61 -61 -61h-348q-29 0 -45.5 16t-16.5 45z" />
<glyph unicode="&#x2011;" horiz-adv-x="573" d="M51 569v64q0 29 16.5 45t45.5 16h348q61 0 61 -61v-64q0 -61 -61 -61h-348q-29 0 -45.5 16t-16.5 45z" />
<glyph unicode="&#x2012;" horiz-adv-x="573" d="M51 569v64q0 29 16.5 45t45.5 16h348q61 0 61 -61v-64q0 -61 -61 -61h-348q-29 0 -45.5 16t-16.5 45z" />
<glyph unicode="&#x2013;" horiz-adv-x="956" d="M61 573v56q0 29 16.5 45t45.5 16h711q61 0 61 -61v-56q0 -61 -61 -61h-711q-29 0 -45.5 16t-16.5 45z" />
<glyph unicode="&#x2014;" horiz-adv-x="1478" d="M61 573v56q0 29 16.5 45t45.5 16h1233q61 0 61 -61v-56q0 -61 -61 -61h-1233q-29 0 -45.5 16t-16.5 45z" />
<glyph unicode="&#x2018;" horiz-adv-x="344" d="M61 1042v97q0 34 25 75l90 148q16 24 43 24h19q14 0 19.5 -9.5t-1.5 -26.5l-61 -144h26q30 0 46 -16.5t16 -44.5v-103q0 -28 -16 -44.5t-46 -16.5h-98q-30 0 -46 16.5t-16 44.5z" />
<glyph unicode="&#x2019;" horiz-adv-x="344" d="M61 1202v103q0 28 16 44.5t46 16.5h98q30 0 46 -16.5t16 -44.5v-97q0 -34 -25 -75l-90 -148q-16 -24 -43 -24h-19q-14 0 -19.5 9.5t1.5 26.5l62 144h-27q-30 0 -46 16.5t-16 44.5z" />
<glyph unicode="&#x201a;" horiz-adv-x="344" d="M61 61v103q0 28 16 44.5t46 16.5h98q30 0 46 -16.5t16 -44.5v-96q0 -35 -25 -76l-90 -148q-16 -24 -43 -24h-19q-14 0 -19.5 10t1.5 27l62 143h-27q-30 0 -46 16.5t-16 44.5z" />
<glyph unicode="&#x201c;" horiz-adv-x="665" d="M61 1042v97q0 34 25 75l90 148q16 24 43 24h19q14 0 19.5 -9.5t-1.5 -26.5l-61 -144h26q30 0 46 -16.5t16 -44.5v-103q0 -28 -16 -44.5t-46 -16.5h-98q-30 0 -46 16.5t-16 44.5zM383 1042v97q0 34 25 75l90 148q16 24 43 24h18q14 0 20 -9.5t-1 -26.5l-62 -144h27 q61 0 61 -61v-103q0 -61 -61 -61h-99q-61 0 -61 61z" />
<glyph unicode="&#x201d;" horiz-adv-x="665" d="M61 1202v103q0 28 16 44.5t46 16.5h98q30 0 46 -16.5t16 -44.5v-97q0 -34 -25 -75l-90 -148q-16 -24 -43 -24h-19q-14 0 -19.5 9.5t1.5 26.5l62 144h-27q-30 0 -46 16.5t-16 44.5zM383 1202v103q0 61 61 61h99q61 0 61 -61v-97q0 -36 -24 -75l-91 -148q-16 -24 -43 -24 h-18q-14 0 -19.5 9.5t1.5 26.5l61 144h-27q-61 0 -61 61z" />
<glyph unicode="&#x201e;" horiz-adv-x="665" d="M61 61v103q0 28 16 44.5t46 16.5h98q30 0 46 -16.5t16 -44.5v-96q0 -35 -25 -76l-90 -148q-16 -24 -43 -24h-19q-14 0 -19.5 10t1.5 27l62 143h-27q-30 0 -46 16.5t-16 44.5zM383 61v103q0 61 61 61h99q61 0 61 -61v-96q0 -37 -24 -76l-91 -148q-16 -24 -43 -24h-18 q-14 0 -19.5 10t1.5 27l61 143h-27q-61 0 -61 61z" />
<glyph unicode="&#x2022;" horiz-adv-x="540" d="M72 680q0 83 57.5 141t140.5 58t141 -58t58 -141t-58 -141t-141 -58t-140.5 58t-57.5 141z" />
<glyph unicode="&#x2026;" horiz-adv-x="1163" d="M61 61v103q0 28 16 44.5t46 16.5h98q30 0 46 -16.5t16 -44.5v-103q0 -28 -16 -44.5t-46 -16.5h-98q-30 0 -46 16.5t-16 44.5zM471 61v103q0 61 61 61h99q61 0 61 -61v-103q0 -61 -61 -61h-99q-61 0 -61 61zM881 61v103q0 61 61 61h98q30 0 46 -16.5t16 -44.5v-103 q0 -28 -16 -44.5t-46 -16.5h-98q-61 0 -61 61z" />
<glyph unicode="&#x202f;" horiz-adv-x="370" />
<glyph unicode="&#x2039;" horiz-adv-x="491" d="M41 381q0 29 18 61l181 289q19 31 51 31h106q21 0 28.5 -14.5t-3.5 -36.5l-186 -330l186 -330q11 -22 3.5 -36.5t-28.5 -14.5h-106q-32 0 -51 31l-181 288q-18 32 -18 62z" />
<glyph unicode="&#x203a;" horiz-adv-x="491" d="M65.5 14.5q-7.5 14.5 4.5 36.5l186 330l-186 330q-12 22 -4.5 36.5t28.5 14.5h107q32 0 51 -31l180 -289q19 -34 19 -61q0 -28 -19 -62l-180 -288q-19 -31 -51 -31h-107q-21 0 -28.5 14.5z" />
<glyph unicode="&#x205f;" horiz-adv-x="463" />
<glyph unicode="&#x20ac;" horiz-adv-x="897" d="M-10 526v56q0 53 55 53h84v98h-84q-24 0 -39.5 14t-15.5 37v56q0 53 55 53h84v76q0 138 62.5 237t162.5 145t224 46q133 0 210.5 -36.5t77.5 -88.5v-43q0 -30 -16.5 -47t-42.5 -17q-12 0 -79.5 19.5t-131.5 19.5q-121 0 -185.5 -65t-64.5 -183v-63h334q55 0 55 -53v-56 q0 -23 -15.5 -37t-39.5 -14h-334v-98h272q56 0 56 -53v-56q0 -23 -16 -37t-40 -14h-272v-65q0 -118 64.5 -183t185.5 -65q64 0 131.5 19.5t79.5 19.5q26 0 42.5 -17t16.5 -47v-43q0 -52 -77.5 -88.5t-210.5 -36.5q-124 0 -224 46t-162.5 145t-62.5 237v78h-84 q-24 0 -39.5 14t-15.5 37z" />
<glyph unicode="&#x2122;" horiz-adv-x="1058" d="M10 1298v33q0 35 35 35h311q35 0 35 -35v-33q0 -34 -35 -34h-92q-6 0 -6 -7v-483q0 -35 -35 -35h-45q-35 0 -35 35v483q0 7 -6 7h-92q-35 0 -35 34zM477 774v557q0 35 35 35h45q19 0 33 -25l143 -268l144 270q11 23 32 23h43q35 0 35 -35v-557q0 -35 -35 -35h-45 q-35 0 -35 35v336l-96 -180q-12 -25 -35 -25h-18q-23 0 -35 25l-96 182v-338q0 -35 -35 -35h-45q-35 0 -35 35z" />
<glyph unicode="&#x25fc;" horiz-adv-x="1054" d="M0 0v1055h1055v-1055h-1055z" />
</font>
</defs>
</svg>
